<?xml version="1.0" encoding="utf-8"?>
<!-- Generator: Adobe Illustrator 19.0.0, SVG Export Plug-In . SVG Version: 6.00 Build 0)  -->
<svg version="1.1" id="Layer_1" xmlns="http://www.w3.org/2000/svg" xmlns:xlink="http://www.w3.org/1999/xlink" x="0px" y="0px"
	 viewBox="-182 -132 230 136.1" style="enable-background:new -182 -132 230 136.1;" xml:space="preserve">
<style type="text/css">
	.st0{fill:none;stroke:#FFFFFF;stroke-width:8;stroke-miterlimit:10;}
	.st1{fill:#ED2121;stroke:#FFFFFF;stroke-width:7;stroke-miterlimit:10;}
	.st2{fill:#B7B7B7;}
	.st3{fill:#60B8D7;}
	.st4{fill:#FFFFFF;}
	.st5{fill:#5FBADA;}
	.st6{fill:#58595B;}
</style>
<g>
	<circle class="st0" cx="-42.5" cy="-61.1" r="56.4"/>
	<path class="st1" d="M-22.6-20.8c4.2-3.2,11.2-8.4,15.4-11.6s8.2-1.5,8.9,3.8C2.3-23.3,3.4-14.7,4-9.4c0.6,5.3-2.8,7.9-7.7,5.8
		c-4.9-2.1-12.9-5.5-17.7-7.6C-26.4-13.4-26.9-17.7-22.6-20.8z"/>
</g>
<g>
	<path class="st2" d="M-175.9-130.8v2.7h1.4v1.7h-1.4v5.2c0,0.4,0.1,0.6,0.2,0.8c0.1,0.2,0.3,0.2,0.7,0.2c0.1,0,0.2,0,0.3,0
		c0.1,0,0.2,0,0.3,0v1.7c-0.3,0-0.5,0-0.8,0s-0.5,0-0.8,0c-0.5,0-0.9,0-1.2-0.1s-0.5-0.2-0.7-0.4c-0.2-0.2-0.3-0.5-0.3-0.8
		c-0.1-0.3-0.1-0.7-0.1-1.2v-5.4h-1.3v-1.7h1.2v-2.7H-175.9z"/>
	<path class="st2" d="M-169.1-125.4c0-0.3-0.1-0.5-0.2-0.7c-0.1-0.2-0.2-0.3-0.4-0.4s-0.4-0.2-0.6-0.2c-0.3,0-0.5,0.1-0.6,0.2
		c-0.2,0.1-0.3,0.3-0.4,0.4c-0.1,0.2-0.2,0.4-0.2,0.6s-0.1,0.5-0.1,0.7v0.4h2.6C-169-124.8-169-125.1-169.1-125.4 M-171.5-122.2
		c0,0.3,0,0.6,0.1,0.8c0,0.3,0.1,0.5,0.2,0.7c0.1,0.2,0.2,0.4,0.4,0.5c0.2,0.1,0.3,0.2,0.6,0.2c0.4,0,0.7-0.1,0.9-0.4
		c0.2-0.3,0.3-0.7,0.4-1.4h2.2c0,1.1-0.3,2-0.9,2.5c-0.5,0.6-1.4,0.9-2.6,0.9c-0.9,0-1.6-0.1-2.1-0.4c-0.5-0.3-0.9-0.7-1.1-1.2
		c-0.2-0.5-0.4-1-0.4-1.6c-0.1-0.6-0.1-1.2-0.1-1.8s0-1.3,0.1-1.9c0.1-0.6,0.3-1.1,0.5-1.6c0.3-0.4,0.7-0.8,1.2-1
		c0.5-0.3,1.2-0.4,2-0.4c0.7,0,1.3,0.1,1.8,0.3s0.8,0.6,1.1,1s0.4,0.9,0.5,1.5c0.1,0.6,0.1,1.3,0.1,2v0.6h-4.9V-122.2z"/>
	<path class="st2" d="M-160.8-125.3c0-0.2-0.1-0.4-0.2-0.6c-0.1-0.2-0.2-0.3-0.3-0.4c-0.1-0.1-0.3-0.2-0.6-0.2
		c-0.3,0-0.5,0.1-0.7,0.2c-0.2,0.1-0.3,0.3-0.4,0.6c-0.1,0.3-0.2,0.6-0.2,1s-0.1,0.9-0.1,1.5c0,0.6,0,1.1,0.1,1.5
		c0,0.4,0.1,0.8,0.2,1c0.1,0.3,0.2,0.5,0.4,0.6c0.2,0.1,0.4,0.2,0.7,0.2c0.4,0,0.7-0.2,0.9-0.5c0.2-0.4,0.3-0.9,0.3-1.7h2.3
		c0,1.3-0.3,2.2-0.8,2.9c-0.6,0.7-1.5,1-2.8,1c-0.6,0-1.2-0.1-1.6-0.2c-0.5-0.1-0.8-0.4-1.1-0.8s-0.5-0.9-0.7-1.5
		c-0.2-0.6-0.2-1.5-0.2-2.4c0-1,0.1-1.8,0.3-2.4s0.5-1.2,0.8-1.5c0.3-0.4,0.8-0.7,1.2-0.8c0.5-0.2,1-0.2,1.6-0.2c1.1,0,2,0.3,2.6,1
		c0.6,0.7,0.9,1.6,0.9,2.7h-2.3C-160.7-124.9-160.8-125.1-160.8-125.3"/>
	<path class="st2" d="M-154.7-131.2v4.1l0,0c0.5-0.8,1.3-1.2,2.3-1.2c0.8,0,1.4,0.2,1.8,0.6c0.4,0.4,0.6,1.1,0.6,2.1v7.1h-2.5v-6.6
		c0-0.5-0.1-0.8-0.2-1c-0.2-0.2-0.4-0.3-0.8-0.3c-0.9,0-1.3,0.5-1.3,1.6v6.4h-2.5v-12.8H-154.7z"/>
	<path class="st2" d="M-145.9-128.1v1.1l0,0c0.3-0.5,0.6-0.8,1-1c0.4-0.2,0.9-0.3,1.4-0.3c0.8,0,1.4,0.2,1.8,0.6
		c0.5,0.4,0.7,1.1,0.7,2.1v7.1h-2.5v-6.6c0-0.5-0.1-0.8-0.2-1c-0.2-0.2-0.4-0.3-0.8-0.3c-0.9,0-1.3,0.5-1.3,1.6v6.4h-2.5v-9.7
		H-145.9z"/>
	<path class="st2" d="M-137.1-122c0,0.4,0.1,0.8,0.2,1.1c0.1,0.3,0.2,0.5,0.4,0.7c0.2,0.2,0.4,0.2,0.7,0.2c0.5,0,0.8-0.3,1-0.8
		c0.2-0.5,0.3-1.4,0.3-2.6c0-1.2-0.1-2.1-0.3-2.6c-0.2-0.5-0.5-0.8-1-0.8c-0.3,0-0.5,0.1-0.7,0.2c-0.3,0.3-0.4,0.6-0.5,0.9
		c-0.1,0.3-0.1,0.7-0.2,1.1c0,0.4,0,0.9,0,1.4C-137.2-122.8-137.2-122.4-137.1-122 M-139.4-125.5c0.1-0.6,0.3-1.2,0.6-1.6
		s0.7-0.7,1.2-1c0.5-0.2,1.1-0.3,1.8-0.3s1.3,0.1,1.8,0.3c0.5,0.2,0.9,0.5,1.2,1c0.3,0.4,0.5,1,0.6,1.6c0.1,0.6,0.2,1.4,0.2,2.2
		c0,0.8-0.1,1.5-0.2,2.2c-0.1,0.6-0.3,1.2-0.6,1.6s-0.7,0.7-1.2,0.9c-0.5,0.2-1.1,0.3-1.8,0.3s-1.3-0.1-1.8-0.3
		c-0.5-0.2-0.9-0.5-1.2-0.9s-0.5-0.9-0.6-1.6c-0.1-0.6-0.2-1.4-0.2-2.2C-139.6-124.1-139.6-124.8-139.4-125.5"/>
	<rect x="-130.7" y="-131.2" class="st2" width="2.5" height="12.7"/>
	<g>
		<path class="st2" d="M-124.3-122c0,0.4,0.1,0.8,0.2,1.1c0.1,0.3,0.2,0.5,0.4,0.7c0.2,0.2,0.4,0.2,0.7,0.2c0.5,0,0.8-0.3,1-0.8
			c0.2-0.5,0.3-1.4,0.3-2.6c0-1.2-0.1-2.1-0.3-2.6c-0.2-0.5-0.5-0.8-1-0.8c-0.3,0-0.5,0.1-0.7,0.2c-0.2,0.2-0.3,0.4-0.4,0.7
			c-0.1,0.3-0.1,0.7-0.2,1.1c0,0.4,0,0.9,0,1.4C-124.4-122.8-124.4-122.4-124.3-122 M-126.6-125.5c0.1-0.6,0.3-1.1,0.6-1.5
			s0.7-0.7,1.2-1c0.5-0.2,1.1-0.3,1.8-0.3s1.3,0.1,1.8,0.3s0.9,0.5,1.2,1c0.3,0.4,0.5,1,0.6,1.6s0.2,1.4,0.2,2.2
			c0,0.8-0.1,1.5-0.2,2.2c-0.1,0.6-0.3,1.2-0.6,1.6s-0.7,0.7-1.2,0.9s-1.1,0.3-1.8,0.3s-1.3-0.1-1.8-0.3s-0.9-0.5-1.2-0.9
			c-0.3-0.4-0.5-0.9-0.6-1.6c-0.1-0.6-0.2-1.4-0.2-2.2C-126.8-124.1-126.8-124.8-126.6-125.5"/>
		<path class="st2" d="M-115.7-122.1c0,0.3,0.1,0.6,0.2,0.8c0.1,0.2,0.2,0.4,0.4,0.6c0.2,0.1,0.4,0.2,0.6,0.2c0.3,0,0.5-0.1,0.6-0.2
			c0.2-0.1,0.3-0.3,0.4-0.6c0.1-0.2,0.2-0.5,0.2-0.9c0-0.3,0.1-0.7,0.1-1.1c0-1.2-0.1-2-0.3-2.5c-0.2-0.5-0.5-0.7-1-0.7
			c-0.3,0-0.5,0.1-0.7,0.2c-0.2,0.1-0.3,0.3-0.4,0.6c-0.1,0.3-0.2,0.6-0.2,1.1c0,0.4,0,1,0,1.6
			C-115.7-122.7-115.7-122.4-115.7-122.1 M-110.8-119c0,1.2-0.3,2.2-0.9,2.8c-0.6,0.6-1.6,0.9-3.1,0.9c-1,0-1.8-0.2-2.4-0.7
			c-0.6-0.4-0.8-1-0.8-1.9h2.3c0,0.3,0.1,0.6,0.4,0.7c0.1,0.1,0.2,0.1,0.4,0.2c0.1,0,0.3,0.1,0.4,0.1c0.5,0,0.8-0.2,1.1-0.5
			c0.2-0.3,0.3-0.7,0.3-1.2v-1.3l0,0c-0.2,0.4-0.6,0.6-0.9,0.9c-0.4,0.2-0.7,0.3-1.1,0.3c-1,0-1.7-0.4-2.2-1.1
			c-0.5-0.7-0.7-2-0.7-3.7c0-0.6,0-1.1,0.1-1.7s0.2-1.1,0.4-1.6c0.2-0.5,0.5-0.9,0.9-1.1c0.4-0.3,0.9-0.4,1.6-0.4
			c0.3,0,0.7,0.1,1.1,0.3c0.4,0.2,0.7,0.5,0.9,1l0,0v-1.1h2.4v9.1H-110.8z"/>
		<path class="st2" d="M-108.2-117.2c0.5,0,0.8-0.1,1-0.4c0.2-0.2,0.3-0.6,0.3-0.9l-2.7-9.6h2.6l1.4,6.6l0,0l1.2-6.6h2.5l-2.3,8.9
			c-0.2,0.8-0.4,1.4-0.6,1.9s-0.4,0.9-0.7,1.1c-0.3,0.3-0.6,0.4-1,0.5c-0.4,0.1-0.8,0.1-1.4,0.1h-1v-1.8
			C-108.7-117.2-108.5-117.2-108.2-117.2"/>
	</g>
	<polygon class="st2" points="-96.7,-121.9 -96.7,-124.1 -93.3,-124.1 -93.3,-127.5 -91.1,-127.5 -91.1,-124.1 -87.7,-124.1 
		-87.7,-121.9 -91.1,-121.9 -91.1,-118.5 -93.3,-118.5 -93.3,-121.9 	"/>
	<path class="st2" d="M-176.3-102.4h-2.5v-9.6h2.5V-102.4z M-176.3-113.1h-2.5v-2.1h2.5V-113.1z"/>
	<g>
		<path class="st2" d="M-172.2-111.9v1.1l0,0c0.3-0.5,0.6-0.8,1-1c0.4-0.2,0.9-0.3,1.4-0.3c0.8,0,1.4,0.2,1.8,0.6
			c0.4,0.4,0.6,1.1,0.6,2.1v7.1h-2.5v-6.7c0-0.5-0.1-0.8-0.2-1c-0.2-0.2-0.4-0.3-0.8-0.3c-0.9,0-1.3,0.5-1.3,1.6v6.4h-2.4v-9.6
			H-172.2z"/>
		<path class="st2" d="M-163.3-111.9v1.1l0,0c0.3-0.5,0.6-0.8,1-1c0.4-0.2,0.9-0.3,1.4-0.3c0.8,0,1.4,0.2,1.8,0.6
			c0.4,0.4,0.6,1.1,0.6,2.1v7.1h-2.5v-6.7c0-0.5-0.1-0.8-0.2-1c-0.2-0.2-0.4-0.3-0.8-0.3c-0.9,0-1.3,0.5-1.3,1.6v6.4h-2.5v-9.6
			H-163.3z"/>
		<path class="st2" d="M-154.6-105.8c0,0.4,0.1,0.8,0.2,1.1c0.1,0.3,0.2,0.5,0.4,0.7c0.2,0.2,0.4,0.2,0.7,0.2c0.5,0,0.8-0.3,1-0.8
			s0.3-1.4,0.3-2.6c0-1.2-0.1-2.1-0.3-2.6s-0.5-0.8-1-0.8c-0.3,0-0.5,0.1-0.7,0.2c-0.2,0.2-0.3,0.4-0.4,0.7
			c-0.1,0.3-0.1,0.7-0.2,1.1c0,0.4,0,0.9,0,1.4C-154.7-106.7-154.6-106.2-154.6-105.8 M-156.9-109.3c0.1-0.6,0.3-1.2,0.6-1.6
			c0.3-0.4,0.7-0.7,1.2-1c0.5-0.2,1.1-0.3,1.8-0.3s1.3,0.1,1.8,0.3c0.5,0.2,0.9,0.5,1.2,1c0.3,0.4,0.5,1,0.6,1.6
			c0.1,0.6,0.2,1.4,0.2,2.2s-0.1,1.5-0.2,2.2c-0.1,0.6-0.3,1.2-0.6,1.6s-0.7,0.7-1.2,0.9c-0.5,0.2-1.1,0.3-1.8,0.3s-1.3-0.1-1.8-0.3
			c-0.5-0.2-0.9-0.5-1.2-0.9s-0.5-0.9-0.6-1.6c-0.1-0.6-0.2-1.4-0.2-2.2C-157.1-108-157-108.7-156.9-109.3"/>
	</g>
	<polygon class="st2" points="-141.3,-111.9 -143.7,-102.4 -146.5,-102.4 -149,-111.9 -146.4,-111.9 -145,-105.1 -145,-105.1 
		-143.7,-111.9 	"/>
	<g>
		<path class="st2" d="M-136.4-106.8c-0.2,0.1-0.4,0.1-0.5,0.2c-0.5,0.1-0.9,0.3-1.1,0.5c-0.2,0.2-0.3,0.6-0.3,1s0.1,0.7,0.2,0.9
			c0.1,0.3,0.4,0.4,0.7,0.4c0.2,0,0.3,0,0.5-0.1c0.2-0.1,0.3-0.1,0.5-0.3c0.1-0.1,0.3-0.3,0.4-0.5c0.1-0.2,0.1-0.4,0.1-0.7v-1.9
			C-136-107-136.2-106.9-136.4-106.8 M-140.4-109.2c0-0.6,0.1-1,0.3-1.4c0.2-0.4,0.4-0.7,0.7-0.9c0.3-0.2,0.7-0.4,1.1-0.5
			c0.4-0.1,0.8-0.2,1.3-0.2c0.7,0,1.3,0.1,1.8,0.2s0.8,0.3,1.1,0.6c0.2,0.3,0.4,0.6,0.5,0.9c0.1,0.4,0.1,0.8,0.1,1.2v5
			c0,0.5,0,0.8,0.1,1c0,0.2,0.1,0.5,0.2,0.8h-2.3c-0.1-0.2-0.1-0.3-0.2-0.5c0-0.2-0.1-0.3-0.1-0.5l0,0c-0.3,0.5-0.6,0.8-1,1
			c-0.4,0.1-0.9,0.2-1.5,0.2c-0.4,0-0.8-0.1-1.1-0.2s-0.5-0.4-0.7-0.6c-0.2-0.3-0.3-0.6-0.4-0.9c-0.1-0.3-0.1-0.6-0.1-1
			c0-0.5,0-0.8,0.1-1.2c0.1-0.3,0.2-0.6,0.4-0.8s0.4-0.4,0.7-0.6c0.3-0.2,0.7-0.3,1.1-0.4l1.4-0.4c0.4-0.1,0.6-0.2,0.8-0.4
			c0.1-0.2,0.2-0.4,0.2-0.7c0-0.4-0.1-0.7-0.3-0.9c-0.2-0.2-0.5-0.3-0.9-0.3s-0.7,0.1-0.9,0.3c-0.2,0.2-0.3,0.5-0.3,0.9v0.5h-2.2
			v-0.2H-140.4z"/>
		<path class="st2" d="M-128.8-114.7v2.7h1.4v1.7h-1.4v5.2c0,0.4,0.1,0.6,0.2,0.8c0.1,0.2,0.3,0.2,0.7,0.2c0.1,0,0.2,0,0.3,0
			s0.2,0,0.3,0v1.7c-0.3,0-0.5,0-0.8,0c-0.3,0-0.5,0-0.8,0c-0.5,0-0.9,0-1.2-0.1c-0.3-0.1-0.5-0.2-0.7-0.4c-0.2-0.2-0.3-0.5-0.3-0.8
			c-0.1-0.3-0.1-0.7-0.1-1.2v-5.5h-1.2v-1.7h1.2v-2.7L-128.8-114.7L-128.8-114.7z"/>
	</g>
	<path class="st2" d="M-124-102.4h-2.5v-9.6h2.5V-102.4z M-124-113.1h-2.5v-2.1h2.5V-113.1z"/>
	<g>
		<path class="st2" d="M-120.1-105.8c0,0.4,0.1,0.8,0.2,1.1c0.1,0.3,0.2,0.5,0.4,0.7c0.2,0.2,0.4,0.2,0.7,0.2c0.5,0,0.8-0.3,1-0.8
			s0.3-1.4,0.3-2.6c0-1.2-0.1-2.1-0.3-2.6c-0.2-0.5-0.5-0.8-1-0.8c-0.3,0-0.5,0.1-0.7,0.2c-0.2,0.2-0.3,0.4-0.4,0.7
			c-0.1,0.3-0.1,0.7-0.2,1.1c0,0.4,0,0.9,0,1.4S-120.1-106.2-120.1-105.8 M-122.4-109.3c0.1-0.6,0.3-1.2,0.6-1.6
			c0.3-0.4,0.7-0.7,1.2-1c0.5-0.2,1.1-0.3,1.8-0.3s1.3,0.1,1.8,0.3c0.5,0.2,0.9,0.5,1.2,1c0.3,0.4,0.5,1,0.6,1.6
			c0.1,0.6,0.2,1.4,0.2,2.2s-0.1,1.5-0.2,2.2c-0.1,0.6-0.3,1.2-0.6,1.6c-0.3,0.4-0.7,0.7-1.2,0.9c-0.5,0.2-1.1,0.3-1.8,0.3
			c-0.7,0-1.3-0.1-1.8-0.3c-0.5-0.2-0.9-0.5-1.2-0.9c-0.3-0.4-0.5-0.9-0.6-1.6c-0.1-0.6-0.2-1.4-0.2-2.2
			C-122.6-108-122.5-108.7-122.4-109.3"/>
		<path class="st2" d="M-111.4-111.9v1.1l0,0c0.3-0.5,0.6-0.8,1-1c0.4-0.2,0.9-0.3,1.4-0.3c0.8,0,1.4,0.2,1.8,0.6
			c0.4,0.4,0.6,1.1,0.6,2.1v7.1h-2.5v-6.7c0-0.5-0.1-0.8-0.3-1c-0.2-0.2-0.4-0.3-0.8-0.3c-0.9,0-1.3,0.5-1.3,1.6v6.4h-2.5v-9.6
			H-111.4z"/>
		<path class="st2" d="M-176.5-95.8v1.1l0,0c0.3-0.5,0.6-0.8,1-1c0.5-0.2,0.9-0.3,1.5-0.3c0.8,0,1.4,0.2,1.8,0.6
			c0.4,0.4,0.6,1.1,0.6,2.1v7.1h-2.5v-6.6c0-0.5-0.1-0.8-0.2-1c-0.2-0.2-0.4-0.3-0.8-0.3c-0.9,0-1.3,0.5-1.3,1.6v6.4h-2.5v-9.6
			L-176.5-95.8L-176.5-95.8z"/>
		<path class="st2" d="M-165.4-93c0-0.3-0.1-0.5-0.2-0.7c-0.1-0.2-0.2-0.3-0.4-0.4s-0.4-0.2-0.6-0.2c-0.3,0-0.5,0.1-0.6,0.2
			c-0.2,0.1-0.3,0.3-0.4,0.4c-0.1,0.2-0.2,0.4-0.2,0.6s-0.1,0.5-0.1,0.7v0.4h2.5C-165.4-92.4-165.4-92.8-165.4-93 M-167.9-89.8
			c0,0.3,0,0.6,0.1,0.8c0,0.3,0.1,0.5,0.2,0.7c0.1,0.2,0.2,0.4,0.4,0.5s0.3,0.2,0.6,0.2c0.4,0,0.7-0.1,0.9-0.4
			c0.2-0.3,0.3-0.7,0.4-1.4h2.2c0,1.1-0.3,2-0.9,2.5c-0.5,0.6-1.4,0.9-2.6,0.9c-0.9,0-1.6-0.1-2.1-0.4c-0.5-0.3-0.9-0.7-1.1-1.2
			s-0.4-1-0.4-1.6c-0.1-0.6-0.1-1.2-0.1-1.8s0-1.3,0.1-1.9c0.1-0.6,0.3-1.1,0.5-1.6c0.3-0.5,0.6-0.8,1.1-1.1c0.5-0.3,1.2-0.4,2-0.4
			c0.7,0,1.3,0.1,1.8,0.3c0.5,0.2,0.8,0.6,1.1,1s0.4,0.9,0.5,1.5c0.1,0.6,0.1,1.3,0.1,2v0.6h-4.9v0.8H-167.9z"/>
		<path class="st2" d="M-158.7-98.5v2.7h1.4v1.7h-1.4v5.2c0,0.4,0.1,0.6,0.2,0.8c0.1,0.2,0.3,0.2,0.7,0.2c0.1,0,0.2,0,0.3,0
			s0.2,0,0.3,0v1.7c-0.3,0-0.5,0-0.8,0s-0.5,0-0.8,0c-0.5,0-0.9,0-1.2-0.1s-0.5-0.2-0.7-0.4c-0.2-0.2-0.3-0.5-0.3-0.8
			c-0.1-0.3-0.1-0.7-0.1-1.2v-5.5h-1.2v-1.7h1.2v-2.7L-158.7-98.5L-158.7-98.5z"/>
	</g>
	<polygon class="st2" points="-154.7,-95.8 -153.6,-89 -153.5,-89 -152.3,-95.8 -149.7,-95.8 -148.4,-89 -148.4,-89 -147.2,-95.8 
		-144.9,-95.8 -146.9,-86.2 -149.7,-86.2 -151,-93 -151,-93 -152.2,-86.2 -155.1,-86.2 -157.1,-95.8 	"/>
	<g>
		<path class="st2" d="M-141.8-89.6c0,0.4,0.1,0.8,0.2,1.1c0.1,0.3,0.2,0.5,0.4,0.7c0.2,0.2,0.4,0.2,0.7,0.2c0.5,0,0.8-0.3,1-0.8
			c0.2-0.5,0.3-1.4,0.3-2.6c0-1.2-0.1-2.1-0.3-2.6c-0.2-0.5-0.5-0.8-1-0.8c-0.3,0-0.5,0.1-0.7,0.2c-0.2,0.2-0.3,0.4-0.4,0.7
			c-0.1,0.3-0.1,0.7-0.2,1.1c0,0.4,0,0.9,0,1.4S-141.8-90-141.8-89.6 M-144-93.2c0.1-0.6,0.3-1.2,0.6-1.6c0.3-0.4,0.7-0.7,1.2-1
			c0.5-0.2,1.1-0.3,1.8-0.3c0.7,0,1.3,0.1,1.8,0.3c0.5,0.2,0.9,0.5,1.2,1c0.3,0.4,0.5,1,0.6,1.6s0.2,1.4,0.2,2.2
			c0,0.8-0.1,1.5-0.2,2.2c-0.1,0.6-0.3,1.2-0.6,1.6c-0.3,0.4-0.7,0.7-1.2,0.9c-0.5,0.2-1.1,0.3-1.8,0.3c-0.7,0-1.3-0.1-1.8-0.3
			c-0.5-0.2-0.9-0.5-1.2-0.9c-0.3-0.4-0.5-0.9-0.6-1.6c-0.1-0.6-0.2-1.4-0.2-2.2C-144.2-91.8-144.2-92.5-144-93.2"/>
		<path class="st2" d="M-133-95.8v1.3l0,0c0.2-0.5,0.6-0.8,0.9-1.1c0.4-0.3,0.8-0.4,1.3-0.4c0.1,0,0.1,0,0.2,0c0.1,0,0.2,0,0.2,0
			v2.3c-0.1,0-0.3,0-0.4,0c-0.1,0-0.3,0-0.4,0c-0.2,0-0.4,0-0.6,0.1s-0.4,0.2-0.6,0.3c-0.2,0.1-0.3,0.3-0.4,0.5
			c-0.1,0.2-0.2,0.5-0.2,0.8v5.7h-2.5v-9.6h2.5V-95.8z"/>
	</g>
	<polygon class="st2" points="-126.9,-92.2 -126.9,-92.2 -124.4,-95.8 -121.7,-95.8 -124.5,-92 -121.3,-86.2 -124,-86.2 -126,-90.1 
		-126.9,-89 -126.9,-86.2 -129.4,-86.2 -129.4,-98.9 -126.9,-98.9 	"/>
</g>
<g>
	<g>
		<g>
			<path class="st3" d="M13.2-61.9c0-1.1-0.1-2.1-0.1-3.2l0.1,0.2C13-65.6,13-67,13-67.5c0.1,0.1,0.1,0,0.2,0.6
				c-0.2-1.9-0.4-2.1-0.5-2.3c-0.2-0.2-0.3-0.2-0.6-1.8c0,0.2,0.1,0.4,0.1,0.8c0.1,0.8,0.1,1.4,0,1.2c0.4,1.5,0.2,1.6,0.5,1.8
				c0.2,1,0.1,2.1-0.1,1c0.1,1,0.3,1.9,0.4,2.9c0-0.6,0-1.2,0-1.7C13.2-64.7,12.9-62.4,13.2-61.9z"/>
		</g>
		<g>
			<path class="st3" d="M12.3-71.6c-0.2-0.5-0.2-1-0.3-1.5c0.3,0.8,0.6,1.7,0.9,2.5c0.1-0.4,0-1.3-0.1-2.2c-0.2-0.9-0.4-1.8-0.4-2.3
				c0,1.3-0.4-1-0.1,1.5l-0.7-1.2c-0.1-0.7-0.3-1.5-0.5-2.2c-0.1,0-0.7-1.5-0.5-0.4c0.1,0.2,0.2,0.6,0.3,0.9
				c-0.2-0.1-0.4-0.8-0.6-1.4c-0.2-0.6-0.4-1.1-0.5-0.7c0.6,1.6,0.6,1.9,1.1,2.9c0.3,1.6,0.6,2.7,0.6,3.5c0.1,0.5,0.3,0.5,0.4,1.1
				c0-0.1-0.1-0.3-0.1-0.4L12.3-71.6z"/>
		</g>
		<g>
			<path class="st3" d="M-89.2-34.2L-89.2-34.2l0.4,0.5l0,0C-89-33.9-89.1-34-89.2-34.2z"/>
		</g>
		<g>
			<path class="st3" d="M-96.8-49.8c0.3,0.9,0.6,1.9,0.9,2.7c-0.2-0.3,0.2,1-0.1,0.4c0.1,0.2,0.4,1.2,0.4,0.9l-0.2-0.6
				c0.7,1.4,0.6,0.5,1.6,2.7c-0.2-0.8-0.3-1.3-0.5-1.7c-0.2-0.4-0.3-0.8-0.5-1.1c-0.1-0.3-0.2-0.5-0.2-0.7c-0.4-0.7-0.7-1.5-1-2.2
				L-96.8-49.8z"/>
		</g>
		<g>
			<path class="st3" d="M-6.9-19.9v-0.2C-7-19.9-7.4-19.6-6.9-19.9z"/>
		</g>
		<g>
			<path class="st3" d="M5.5-90.3c0.1,0.1,0.1,0.3,0.2,0.4C5.7-90,5.6-90.1,5.5-90.3z"/>
		</g>
		<g>
			<path class="st3" d="M-89.6-88.4l0.4-0.6C-89.4-88.8-89.5-88.6-89.6-88.4z"/>
		</g>
		<g>
			<path class="st3" d="M-80.3-102.7l0.8-0.8C-79.8-103.2-80-103-80.3-102.7z"/>
		</g>
		<g>
			<path class="st3" d="M0.3-97.5L0.3-97.5c-0.1-0.1-0.1-0.1-0.2-0.1L0.3-97.5z"/>
		</g>
		<g>
			<path class="st3" d="M-48.8-116.7c0,0-0.3,0-0.6,0C-49.3-116.7-49.1-116.7-48.8-116.7z"/>
		</g>
		<g>
			<path class="st3" d="M-80.4-102.5C-80.4-102.6-80.4-102.6-80.4-102.5c0.1-0.1,0.1-0.1,0.1-0.2L-80.4-102.5z"/>
		</g>
		<g>
			<path class="st3" d="M-93.9-82.1c0,0.2-0.1,0.3-0.1,0.5C-93.9-81.9-93.9-82-93.9-82.1z"/>
		</g>
		<g>
			<path class="st3" d="M-92.4-82.7c-0.1,0.2-0.1,0.3-0.1,0.5L-92.4-82.7z"/>
		</g>
		<g>
			<path class="st3" d="M-97.1-57.2l0.1,1C-97-56.7-97-57-97.1-57.2z"/>
		</g>
		<g>
			<path class="st3" d="M-93.6-80.3c0,0.1,0,0.1,0,0.2C-93.6-80.3-93.6-80.3-93.6-80.3z"/>
		</g>
		<g>
			<path class="st3" d="M7.4-84.1L7.4-84.1L7.4-84.1L7.4-84.1z"/>
		</g>
		<g>
			<path class="st3" d="M8.9-82.1c0.1,0.3,0.2,0.5,0.4,0.8C9.1-81.6,9-81.9,8.9-82.1z"/>
		</g>
		<g>
			<path class="st3" d="M-34.8-116.2c0.3,0.1,0.9,0.2,0.6,0.3C-33.7-115.9-33.7-116.2-34.8-116.2z"/>
		</g>
		<g>
			<path class="st3" d="M10-80c0.3,0,0.8,1.9,1.1,2.7c-0.1-0.6,0.3,0.2,0.3,0c-0.2-0.4-0.4-0.9-0.6-1.6c0-0.4,0.5,0.6,0.6,1.5
				c-0.1-1,0.6,1.2,0.3-0.2c-1-3-1.9-5.1-3.3-6.9c0.2,0.4,0.4,0.8,0.6,1.2c0.2,0.4,0.4,0.9,0.5,1.3c0.2,0.4,0.3,0.8,0.5,1.2
				c0.1,0.4,0.2,0.8,0.3,1.1L10-80c-0.1-0.9-0.4-1.5-0.6-2.1c-0.2-0.6-0.5-1.2-0.9-2C9-83,9.3-81.8,9.8-80.7c0.3,1.7,0,0.6-0.6-0.6
				c0.1,0.3,0.2,0.6,0.2,0.7C9.6-80.5,11-76.9,10-80z"/>
		</g>
		<g>
			<path class="st3" d="M6.7-84.4L6.7-84.4L6.7-84.4z"/>
		</g>
		<g>
			<path class="st3" d="M-97.4-67.4C-97.4-67.2-97.3-67.3-97.4-67.4C-97.3-67.4-97.3-67.4-97.4-67.4z"/>
		</g>
		<g>
			<path class="st3" d="M-37.3-117.6c0.3,0,0.6,0,0.9,0.1C-36.8-117.6-37.1-117.6-37.3-117.6z"/>
		</g>
		<g>
			<path class="st3" d="M-21.4-111.3c-0.2-0.1-0.4-0.2-0.6-0.2h-0.1C-22-111.4-21.6-111.3-21.4-111.3z"/>
		</g>
		<g>
			<path class="st3" d="M-67.4-108.2c0.2-0.1,0.4-0.3,0.5-0.4C-67.2-108.4-67.3-108.3-67.4-108.2z"/>
		</g>
		<g>
			<path class="st3" d="M11.8-57.4c-0.1,0,0-0.7-0.1-1c-0.2,0.1,0,1.3-0.3,2.7V-58l0,0c0.1-1.3,0.1-2.5,0.1-3.8
				c0-11.6-3.7-22.3-10.1-31c1.2,1.2,1.9,2.8,3,4.2c-0.1,0-0.2-0.2,0,0.1c0.5,1,1,1.6,1.4,2.2s0.8,1.2,1.1,2.1l-0.2-0.1
				c0.1,0.1,0.6,1.1,0.7,0.8c-0.3-0.7-0.6-1.1-0.8-1.5s-0.4-0.7-0.7-1.4c0.4,0.4,1,1.5,1.4,2.3h0.3c0.7,0.9,0.8,2.2,1.5,3.2
				l-0.3-1.3c0,0,0.1,0.1,0.1,0.2c-0.2-0.6-0.5-1-0.6-1.2c-0.5-0.9-0.7-1.6-0.9-2.2c-0.2-0.5-0.2-0.9-0.2-1.1
				c-0.4-0.9,0.4,0.2,0.5,0c-0.8-1.4-1-1.2-1.8-2.5c-0.2-0.4-0.1-0.3,0.1-0.1l-0.6-0.8C5.5-90,4-92.3,5.1-91
				c0.1,0.2,0.4,0.6,0.5,0.9c-1-2-3-5.2-2.8-5.2c-0.7-1-0.6-0.7-1.7-2.2c-0.7-0.5-0.3,0.3-1.7-1.2l1,1.3c0.3,0.2,0.5,0.4,0.7,0.7
				L0-98c0.8,0.8,0.7,0.5,1.1,0.7c1.7,2,1.8,2.8,2.5,4C3-93.9,2.2-95,2.3-94.5c-0.6-1.2-1-1-1.9-2.3l0.2,0.2c-1-0.8-0.9-1.1-1.7-1.7
				c0.1,0,0-0.1,0-0.2c-1.6-1.5,0.3,0.6-1.3-0.9c-1.3-1.4-0.2-0.7-0.5-1.2c1.3,1.1,1.3,1,1.4,0.9c0.1,0,0.2-0.1,1.5,1.2
				c0.3-0.2-0.7-1.3-2.1-2.7c0.8,1-0.9-0.2,0.1,1.1c-2.2-1.9-2.4-1.3-4.6-3.6h0.1c-0.4-0.2-0.8-0.4-1.2-0.6
				c-0.4-0.4-0.9-0.8-1.3-1.2c1.1,0.4,2.1,1.4,2.9,1.8c-1.5-1.7-2.5-1.6-4.6-3.1c-1.5-1.5,2.2,1.3,2.4,1.1c-0.5-0.2-1.5-1.2-1.3-1.2
				c1.9,1.5,1.3,0.7,3.3,2.5c-1.1-0.7,0.1,0.2-0.2,0.2c0.4,0.2,2.3,1.7,3.5,3c0.5,0.1-0.9-1.2-1.7-2c-0.9-0.6-1.7-1.3-2.5-2
				c-0.4-0.3-0.8-0.7-1.1-0.9c-0.4-0.3-0.8-0.5-1.1-0.7c-1.9-1.3,0-0.3-0.1-0.4c-0.8-0.7-1-0.7-1.1-0.7s0,0.2-0.3,0
				c-1.4-0.8-2-1.3-2.7-1.7c-0.6-0.4-1.1-0.9-2.1-1.4c-1.8-0.6-5.8-2.5-8.8-3.5c0.4,0,0-0.2-0.1-0.4c-1.9-0.1-1.2-0.1-3.6-0.4
				c0.6,0.2,1.2,0.4,1.9,0.7c-1.5-0.4-2.8-0.3-4.2-0.9c1.8,0.8-2.5-0.2-3.7-0.2c-1.6-0.4-3.2-0.2-4-0.5h0.2
				c-0.8-0.1-1.5-0.1-2.3-0.1l0.3-0.4c-1.6-0.2-3.6,0.2-3,0.3c-1.7-0.1-0.7-0.1-0.9-0.3c0.9-0.1,3-0.6,3.6-0.2c-0.1,0-0.5-0.1-0.6,0
				c2.2,0.1,2.6,0,2.7-0.1c0.1-0.2-0.1-0.4,1-0.3c-1.1-0.1-2-0.3-3.3-0.3c-0.6,0-2.9,0.2-4.1,0.4c1.6-0.2,2.4-0.1,3.7,0.1
				c-1.1-0.1-1.2,0.2-2.2,0.1l0.3-0.1l-1.2,0.2c-0.2-0.3-3.2,0.1-1.5-0.3c-1.6,0.2-0.5,0.2-2,0.5c0.9-0.1,1.9-0.1,2.8-0.1v0.3
				c-1,0.2-1.3,0.1-2.4,0.2l0.1,0.3c-0.7,0-1.4,0-2,0c0.3,0.2-1.3,0.3-1.7,0.4c-1.1,0.1-0.5-0.5-2.3,0.1h0.1c-1,0.4-1.7,0.5-3.2,0.8
				c0.1-0.1,0.5-0.2,0.7-0.3c-2.2,0.4-5.3,1.9-6.4,1.9c0.1-0.3,1-0.5,0.9-0.7c3.3-0.8,2.1-1.2,6-2.1c0.2,0.3,1,0,1.8-0.3
				c0.9-0.3,1.8-0.5,2.3-0.3c-0.8,0.1-1.7,0.3-2.3,0.5c-0.6,0.2-1.1,0.4-0.9,0.4c0.3-0.1,0.7-0.2,1.1-0.3c0.4-0.1,0.8-0.2,1.2-0.2
				c0.8-0.1,1.5-0.3,2-0.3c-0.9-0.1-0.7-0.4-0.1-0.7c-0.6,0.1-1.3,0.3-2,0.4c-0.4,0.1-0.8,0.1-1.2,0.2c-0.4,0.1-0.8,0.2-1.3,0.2
				c-0.4,0.1-0.9,0.2-1.3,0.2c-0.4,0.1-0.9,0.2-1.3,0.3c-0.9,0.2-1.8,0.4-2.5,0.7l0.5,0.2c-2.6,1.2,0.2-0.4-1.9,0.3
				c-0.3,0.2-0.6,0.4-0.8,0.6h-0.1l-1.4,0.9c1.1-0.4,0.5-0.5,1.7-0.8c1.1-0.3,0,0.3-0.2,0.6c-0.4,0.1-1.2,0.4-1.7,0.6
				c-0.5,0.2-0.8,0.3-0.1-0.2c-0.9,0.5-1.7,1-2.6,1.6c0-0.1,0.5-0.5,0.8-0.7c-0.7,0.3-1.3,0.7-1.9,1v-0.1c-1.5,0.9-3.6,2.2-4.6,3.1
				c2.6-1.4-1,1-0.7,1c-0.9,0.6-1.5,0.3,0.2-1.2c0.6-0.2,1.8-1.2,2.8-1.8c-1.4,0.6-1.6,1-2.6,1.7c0.6-0.6-1.4,0.7-1.4,0.6
				c0.1-0.2,0.3-0.7,1.6-1.4c1.9-1.2,0.4,0.1,0.9-0.3c0.7,0,2.6-1.6,3.9-2.2c0.1,0-0.2,0.2-0.4,0.3c0.5-0.3,1.3-0.7,2-1
				c0.7-0.3,1.3-0.7,1.3-0.8c-0.9,0.5-1.7,0.9-2.6,1.4c-0.6,0.2,0.7-0.6-0.2-0.3c-0.6,0.4-1.3,0.7-2,1.1l0.1-0.2
				c-1.6,0.7-4,2.2-5.6,3.5c-0.1,0.7-0.8,1.5-1.1,2.5c-2.3,1.8-4.7,3.9-6.9,6.2c0.1,0,0.2,0.1,0.1,0.3c-0.7,0.6-1.7,1.9-1.9,1.7
				c-0.4,0.9-1.9,3.2-1.4,2.9c-0.1,0.1-0.1,0.2-0.2,0.3c-0.9,0.8-2.1,2-3.7,4.7c-0.3,0.5-0.2,0.7,0.1,0.7c-0.4,0.5-0.7,1.1-1,1.6
				c0.1-0.5,0.1-0.8,0.6-1.6c-0.8,1.4-1.6,2.8-2.2,4.3v-0.4c-0.2,0.6-0.4,1.2-0.6,1.8c0.3-1,1.1-2.5,1.2-2c-0.4,1-0.7,1.8-1,2.5
				c-0.3,0.7-0.6,1.5-0.7,2.4c-0.4-0.2-0.7,0.4-0.7-0.3c0-0.1,0.1-0.2,0.1-0.2c0-0.7,0.3-2.2,0.7-3.3c-0.8,1.9-1.1,2.6-1.3,3.2
				c-0.1,0.3-0.2,0.6-0.4,1.1c-0.2,0.4-0.4,1-0.6,1.9c-0.2,0.1,0-0.7,0.2-1.5c0.2-0.7,0.4-1.4,0.1-1.1c0.4-1.1,0.8-2.1,1.3-3.1
				c-0.2,0.5-0.2,0.6-0.2,0.9c0.3-1.1,0.6-1.9,0.9-2.5c0.3-0.7,0.5-1.3,0.8-2.1c0.3-0.5,0.2-0.1,0,0.3s-0.3,0.8,0,0.2
				c-0.4,1-0.5,2-0.5,2.5c0.6-1.2,0.7-1.6,0.7-1.9c0-0.3,0-0.7,0.5-1.7c0.3-0.5,0.6-0.9,1-1.4c0.5-0.9-0.3,0.2-0.4,0.2
				c0.5-1.1,0.9-1.4,1.4-2.3c-0.2,0.2-0.6,0.7-0.6,0.5c0.5-0.6,0.9-1.3,1.3-1.9s0.9-1.2,1.5-1.7c-0.6,0.6,0.2-1,0.5-1.6
				c-0.7,0.7-1.4,1.5-2,2.2c-2,3.3-3.3,5.3-4.8,9.1v-0.3c-1.5,2.9-1.7,4.3-1.9,5.5c-0.1,1.3-0.2,2.4-0.8,5c-0.4,0.1-0.4,2.5-0.7,2.2
				c0.3-1.6,0.1-1.3-0.1-0.9c0,1,0.1,1.6-0.3,3.5c-0.1-0.7-0.5,0.9-0.3-0.9c-0.4,2.5-0.4,3.9-0.2,5.2c0.2,4.1-0.5,1.2-0.2,5.3
				l-0.2-0.6c0,0.9,0.1,1.7,0.2,2.6l0.1-0.9c0.2,1,0.3,2,0.5,3c0.4,1.8,0.1-0.8,0.3-0.6c-0.1-0.2-0.2-0.4-0.3-0.6
				c0-1.2-0.4-2.9-0.2-3.2c0.1,2,0.3,1.5,0.5,2.3l-0.1-1.4l0.2-0.6c0-0.9,0-1.8,0-2.5s0-1.4-0.1-1.9c-0.1,0.8,0.2,1.3,0,2
				c-0.2-0.5-0.2-1.3-0.3-2.3c0-1,0.1-2.1,0.1-3.3c0.1-0.1,0.2-0.8,0.2-0.5c0,0,0,0.4-0.1,0.7c0.2-0.2,0.1,1.1,0.4-1
				c0.1,0.8,0.4,2.4,0.5,2.3c-0.1,1.2-0.1,2.9-0.2,3.9v-0.1c0,1.1,0.3,3.3,0,3.5c0.1,0.6,0.3,2.4,0.3,0.6c0.1,1,0.2,2,0.4,3
				c-0.5-0.5-0.2,2.4-0.9-0.5c0,0.1,0.2,1.2,0.5,2.9c0,0,0,0-0.1-0.1c0-0.1-0.1-0.2-0.1-0.2c-0.1-0.4-0.1-0.6,0-0.6
				c-0.4-1-0.3,0.6,0,2.2l0.3,0.3c0,0.7,0.1,1.3,0.2,1.9s0.2,1.3,0.5,2.2c0.4,0.7,0.7,1.4,1,2l1.1,2c0.2,0.4,0.3,0.8,0.5,1.2
				c0.1,0.6,0.9,2.3,0.4,1.7c0,0.2-0.3-0.4-0.6-1.2c0-0.1,0.1,0.1,0.1-0.1c-0.2-0.2-0.4-0.2-0.2,0.8c-0.4-1-0.4-1.1-0.8-1.8l0.4,1
				c-0.2-0.4-0.4-0.8-0.6-1.2c-0.2-0.4-0.4-0.8-0.6-1.2c-0.4-0.7-0.7-1.3-0.8-1.2c0.4,0.4,0.5,1.4,0.7,2.3c-0.3-0.6-0.9-1.9-0.6-0.9
				c0.1,0.2,0.4,0.9,0.7,1.4c0.3,0.5,0.4,0.6,0.1-0.4c0.4,0.8,1,1.9,1.3,2.8c-0.6-1-0.4-0.3-0.7-0.5c0.5,0.9,0.8,0.8,0.9,0.9
				c0.3,0.7,0.4,1.3,0.6,1.9s0.4,1.1,0.6,1.6c0.4,1.1,0.9,2.1,1.8,3.5c0.3,0.4-1.1-1.7-0.8-1.6c0.4,0.5,0.7,0.9,0.9,1.3
				c0.2,0.4,0.4,0.7,0.6,1.1c0.3,0.7,0.6,1.4,1.3,2.2l-0.1-0.7c0.4,0.5,1.4,1.8,1.9,2.4c0,0.2,1.3,2.2,0.2,0.9
				c0.5,0.8,1,1.3,1.4,1.6c0.4,0.4,0.7,0.6,1.1,0.9s0.7,0.5,1.2,0.9s1,0.9,1.8,1.7c-1.3-1.4-1.5-1.6-2.5-2.7
				c1.2,1.1,0.3,0.1,0.6,0.1c0.3,0.4,1,1.2,1.4,1.6c0.4,0.5,0.6,0.7-0.2,0c0.9,0.9,2.8,2.7,3.4,3l-0.8-0.8c0.7,0.6,1.4,1.2,2.1,1.6
				s1.2,0.7,1.6,0.9c-1.8-1.4-2-1-4.2-3c-2.2-2.4,0.7,0.4-0.6-1.3c-0.6-0.5-1.2-0.9-1.8-1.4L-81-23c-0.2,0-0.8-0.7-1.4-1.2
				c-0.6-0.6-1-1.1-1.1-0.9c-0.6-1-1.1-1.6-1.6-2.2s-1-1.3-1.6-2.4c-0.5-0.4,0.1,0.4,0.5,0.9c-0.7-1.1-1.1-0.9-1.9-2.4
				c-0.4-0.8-0.4-0.1,0.5,1.2c-0.4-0.5-0.7-1.1-1.1-1.6s-0.7-1.1-1.1-1.7c0.2,0.5,0.4,0.9,0.6,1.4c-0.3-0.4-0.6-0.8-0.8-1.3
				c0.2,0.4,0.4,0.8,0.6,1.2c-1.6-2.5-3.1-5.5-3.4-7c0.6,1.1,1.4,2.6,2.2,3.9c0.4,0.7,0.8,1.3,1.2,1.8c0.4,0.5,0.7,0.9,1,1.2
				c-0.1-0.3-0.4-0.6-0.7-1.1c-0.3-0.4-0.6-0.9-0.6-1.3l-0.6-0.5c-0.5-0.7-1.5-2.5-1.4-2.8c0.6,1,1.1,1.7,1.4,2.2
				c0.4,0.5,0.7,0.8,1.1,1.3c0,0,0.2,0.2,0.4,0.5l0,0l0,0c0.4,0.6,1,1.6,1.4,2.1c0.4,0.7,0,0.3-0.1,0.3c0.3,0.7,0.7,1.2,1.1,1.7
				s0.8,1,1.2,1.4c0.4,0.4,0.9,0.9,1.3,1.4c0.5,0.5,0.9,1,1.4,1.6c-0.2,0.2,1.4,1.9,0.9,1.4c1.2,1.3,2.1,1.8,3,2.5
				c0,0.3,2,1.8,1.2,1.4c0.5,0.3,0.9,0.6,1.4,0.8c0.4,0.4,1.1,0.9,1.7,1.4c0.6,0.4,1.2,0.8,1.3,1c1,0.6,0.4,0,1.8,1
				c-0.1,0,0,0.1-0.3-0.1c0.3,0.2,0.8,0.6,1.4,1c0.6,0.3,1.2,0.6,1.5,0.8c-1-0.6-0.2-0.2-1.4-0.9c0.1-0.1,1.5,0.6,2.9,1.5
				c-1-0.4-0.7-0.1-0.2,0.2c0.5,0.3,1.1,0.7,0.6,0.5c3.1,1.6,5.1,2,7.9,2.6c0.4,0.1,0.8,0.3,1.2,0.4c0.4,0.1,0.9,0.2,1.3,0.4
				c0.4,0.1,0.9,0.3,1.3,0.4s0.9,0.2,1.3,0.3c0.4,0.1,0.9,0.2,1.3,0.3c0.4,0.1,0.8,0.1,1.3,0.2c0.8,0.1,1.6,0.2,2.2,0.2l-0.3-0.1
				h1.6c0.9,0.1,0,0.4,1.4,0.4c-0.5,0.3-2.5-0.2-3.9-0.2c1.2,0.3,0.6,0.3-0.1,0.3c-0.7-0.1-1.5-0.1-0.7,0.1c0.3-0.1,0.7-0.1,1.3,0
				c0.6,0,1.3,0.1,2,0.2s1.5,0.2,2.2,0.2c0.7,0.1,1.4,0.1,2,0c2.1,0.1-1,0.2,0.1,0.3l0.7-0.2c0.8,0.1,1.1,0.1,1.1,0.3
				c2.3,0.1,4.8-0.2,6.7-0.6c-2.4,0.4,0.8-0.4-1.6-0.1c0.7-0.2,2.2-0.4,3.7-0.6c-1.4,0.3,1.9,0.1-1.2,0.5c0.5,0.2,1.5-0.3,2.9-0.5
				c-0.7,0.2-2.2,0.7-2.1,0.7c1-0.3,2.7-0.6,4.2-0.9c1.5-0.3,2.9-0.6,3.2-0.8c1.4-0.7,3.6-1.6,5.2-2.6c1.8-0.5,3.6-1.5,5.4-2.5
				l-0.3,0.3c1-0.6,2.6-1.5,4.1-2.5h0.4c1-0.7,2.8-2.1,4.2-3.2c-0.1-0.1-1.4,0.9-0.8,0.3c-0.7,0.6-1.3,1-1,1
				c-0.7,0.6-0.9,0.4-1.5,0.8c0.9-0.7,1.8-1.5,2.7-2.2c0.2-0.2,0.3-0.2,0.3-0.2v-0.4c0.7-0.6,0.9-0.7,0.9-0.6
				c0.7-0.7,1.1-1.2,1.6-1.7c0.4-0.5,0.9-1.1,1.6-1.8C-3.4-23.5-3.7-23-4.7-22c0.6-0.5,1.1-1.1,1.7-1.7c-0.3,0.4-1.2,1.4-2,2.2
				c-0.8,0.8-1.4,1.4-1,1.3c0.5-0.5,1-1,1.5-1.5s1-1.2,1.6-1.8c1.1-1.2,1.9-2.4,2.6-3.4c0.2-0.2,0.5-0.4,0.7-0.7
				c0.2-0.3,0.5-0.6,0.7-1c0.5-0.7,1-1.5,1.6-2.3c0.2-0.2,0.6-0.7,0.5-0.3l-0.3,0.5c1.5-2.2,3-4.9,3.8-7.1l0.8-1
				c0.9-1.8,0.7-1.7,0.5-1.6s-0.4,0.2,0.3-1.7c0.7-0.8,1.8-4.7,2.1-4.8c0.2-0.8,0.3-1.1,0.1-1.2c-0.1,0.3-0.2,0.9-0.3,1.2
				c-0.1,0.3-0.2,0.5-0.2,0c0.3-1.4,0.6-2,0.8-3.1c0,0.1,0,0.9,0.1,0.5c0.1-0.3,0.1-0.7,0.2-1.1c0.1-0.4,0.1-0.8,0.2-1.3
				c0.1-0.9,0.3-1.8,0.4-2.8C11.8-55.7,11.8-56.6,11.8-57.4c0-1-0.1-1.8-0.2-2.4C11.8-58.8,12.1-58.7,11.8-57.4z M-94.3-66L-94.3-66
				c-0.1,0.2-0.3,0.8-0.5,1.6c-0.1,0.8-0.3,1.8-0.5,2.9c0-2.5,0.2-5.1,0.7-7.6l-0.2,0.3c0.1-0.8,0.1-1.5,0.3-1.9c0,0,0,0.2,0.1,0.7
				c0,0.4,0.1,1,0.1,1.6c0,0.4,0,0.7,0.1,1.1C-94.2-66.9-94.2-66.4-94.3-66z M-91.6-44.5C-91.6-44.4-91.6-44.4-91.6-44.5
				c0.3,0.6,0.3,0.8,0.4,1C-91.4-43.9-91.5-44.2-91.6-44.5z M-89.8-83.6c0.2-0.4,0.4-0.8,0.7-1.3c-0.3,0.7-0.7,1.4-1,2.1
				C-90.1-82.9-90-83.2-89.8-83.6z M-87.7-35.6l-0.3-0.3c-0.5-0.9-0.9-1.9-1.4-2.8c-0.4-0.9-0.8-1.8-1.1-2.7c0.3,0.6,0.7,1.2,1,2
				c-0.1-0.2-0.1-0.4-0.2-0.7c0.7,1.5,1.4,2.9,2.2,4.4c-0.4-0.5-0.9-1.3-1.3-2.2C-88.8-37.8-88.4-36.8-87.7-35.6z M-87.1-88.7
				c-0.1,0.1-0.1,0.2-0.1,0.3l0,0l0,0c-0.5,0.8-0.9,1.6-1.3,2.4c-0.2,0.2-0.4,0.5-0.6,0.8l0.8-2c0,0.1-0.1,0.1-0.1,0.2
				c0.3-0.7,0.7-1.3,1-1.9C-87.2-88.9-87-88.9-87.1-88.7z M-61.1-111.2c0.4-0.2,0.8-0.5,1.3-0.8c0.5-0.3,1.1-0.6,1.7-0.9l-0.1,0.1
				c0.9-0.4,1.9-0.6,2.9-0.9l-0.3,0.2c0.5-0.2,1.1-0.4,1.7-0.6c0,0.3,0.6,0,0.5,0.2c0.6,0.1,1.5-0.2,2.6-0.4
				c1.1-0.3,2.4-0.6,3.6-0.6l-0.3,0.2c0.6-0.2,1.7-0.3,3-0.3c1.2,0,2.5,0,3.6,0.1H-41c-0.9,0.1-1.3,0.2-1.2,0.3
				c-1,0-1.9,0.1-2.9,0.1c-0.1,0-0.2,0-0.5-0.1c-0.3,0.1-0.8,0.1-1.2,0.2c-0.1,0-0.1,0-0.2,0c-1.5,0.2-2.9,0.4-4.3,0.7
				c0.1-0.1,0.4-0.2,0.7-0.3c-0.5,0.1-0.9,0.2-1.4,0.3l-1.4,0.4c-0.9,0.2-1.9,0.5-2.8,0.8l0,0c-1.6,0.5-3.2,1-4.7,1.7
				C-61-111.1-61.1-111.2-61.1-111.2z M-67.1-108.2c-0.3,0.1-0.4,0.1-0.3,0c-0.8,0.5-2.1,1.1-2.5,1.4c0.9-0.4,0.8-0.3,0.3,0.1
				c-0.4,0.3-0.9,0.5-1.3,0.8c0-0.1,0.2-0.3-0.3,0l-1.8,1.3l1.6-1.1l-0.1,0.2c-3.8,2.6-7.3,5.7-10.3,9.3c-0.9,0.7-1.4,1-2,1.3
				c0.5-0.7,0.9-1.3,1.4-1.8h0.3c0.6-0.7,1.2-1.3,1.7-1.9s1-1.2,1.6-1.8c1-1.2,2.2-2.4,3.7-3.5c-0.3,0.5-1.5,1.3-1.2,1.3
				c0.9-0.7,1.2-1.1,1.5-1.5c0.3-0.4,0.6-0.8,1.6-1.3c-1.3,1-0.8,0.7-0.4,0.4c0.5-0.3,1-0.6-0.1,0.4c3-2.7,7-4.4,9.4-5.6
				c-0.7,0.1,0.9-0.6,0.9-0.7c0.6-0.3,0.5,0,0,0.2c1.3-0.4,1.6-0.3,1.5-0.1c-0.8,0.4-1.7,0.8-2.5,1.2c0.5-0.2,0.8-0.3,1.2-0.4
				C-64.6-109.6-65.8-108.9-67.1-108.2z M-30.8-9.8c0.2-0.1,0.3-0.2,0.4-0.2c0.4-0.1,0.8-0.2,1.1-0.3C-29.3-10.2-29.3-10-30.8-9.8z
				 M-28.3-10.4c-0.1,0-0.2,0-0.3,0c0.3-0.1,0.6-0.2,1-0.3C-27.8-10.6-28-10.5-28.3-10.4z M-30.7-41.7C-33.9-40-37.6-39-41.4-39
				C-54-39-64.3-49.2-64.3-61.9c0-12.6,10.2-22.9,22.9-22.9s22.9,10.2,22.9,22.9C-18.6-53.1-23.5-45.5-30.7-41.7z M-17.8-109.3
				c-4.6-2.3-9.6-4-14.9-4.8c1.3,0.1,2.7,0.2,4.1,0.4c0,0-0.1,0-0.3,0c1.1,0.2,1.7,0.5,2.3,0.6s1.1,0.3,2,0.6l-0.6-0.1
				c0.2,0.3,1.8,0.5,3.2,1.1c0.5,0.1,1.4,0.3,1.9,0.7h-0.3c0.1,0.1,0.5,0.3,1,0.6c0.3,0.1,0.6,0.3,0.9,0.4c0.3,0.2,0.7,0.4,1.1,0.6
				C-17.4-109.2-17.6-109.2-17.8-109.3z M1.1-93.5L1.1-93.5c0.3,0.3,0.5,0.6,0.7,0.8L1.4-93C1.3-93.1,1.2-93.3,1.1-93.5z"/>
		</g>
		<g>
			<path class="st3" d="M-82.2-99L-82.2-99L-82.2-99z"/>
		</g>
		<g>
			<path class="st3" d="M-78.9-102.8l-0.6,0.7c0.7-0.6,1.1-1,1.4-1.4c0.3-0.4,0.5-0.6,0.8-0.9c0,0.1,0.1,0,0.3-0.1
				c1.2-1,1.7-1.8,0.9-1.4l-0.4,0.4c-0.3,0.2-0.7,0.3-1,0.5c0,0.3-0.7,1-1.5,1.7c-0.8,0.8-1.7,1.6-2.3,2.3c0.3-0.5,0.7-1,1-1.5
				c0.4-0.5,0.8-1,1.5-1.4l-0.3-0.1c1-0.9,2-1.5,2.5-2.1c-0.4,0.3-0.8,0.7-1.2,1.1l-0.1-0.1c-0.9,0.8-1.8,1.9-2.7,2.5
				c-0.6,0.7-1,1.5-2.7,3.3v-0.1c-0.4,0.8-1.2,1.6-2,2.4c-0.8,0.8-1.5,1.6-1.8,2.1c0,0.4,0.4-0.1,0.9-0.8c0.5-0.7,1.2-1.5,1.5-1.8
				c-0.5,0.9-1.4,1.6-0.6,1.1c-1.3,2-1.2,0.9-2.1,2.7l0.7-0.9c-0.2,0.4-0.5,0.9-0.8,1.4s-0.6,1-0.8,1.4c0.2,0.3,0.8-1.3,1.9-2.6
				l-0.2,0.8l0.9-1.4l0.9-1.4c0.3-1-0.3-0.3,0.9-2.1c0.6-0.5,1.1-0.7,1.4-0.6C-81.9-99.7-80.6-101.3-78.9-102.8z"/>
		</g>
		<g>
			<path class="st3" d="M8.6-81.8c-0.1,0.1-0.3-0.5-0.5-0.9s-0.4-0.8-0.3-0.4C8.1-82.7,8.5-81.6,8.6-81.8z"/>
		</g>
		<g>
			<path class="st3" d="M8.4-81.4l-0.5-1.2l0.3,0.9C8.2-81.6,8.3-81.7,8.4-81.4z"/>
		</g>
		<g>
			<path class="st3" d="M-7.1-105.7c0.3,0.2,0.6,0.6,1.1,0.8C-6-105-6.7-105.4-7.1-105.7z"/>
		</g>
		<g>
			<path class="st3" d="M-0.5-23.8l0.8-1l1.6-1.9l0.8-1.1c-1.1,1.4-2.3,3-4.1,4.9L-0.5-23.8z"/>
		</g>
		<g>
			<path class="st3" d="M3.4-28.7l0.7-1l0.7-1.1c-0.5,0.7-1,1.5-1.5,2.2L3.4-28.7z"/>
		</g>
		<g>
			<path class="st3" d="M-36.3-116.3c1.3,0,2.3,0.1,3.3,0.1c1,0.1,1.9,0.1,3.3,0.4c-0.9-0.3-1.6-0.4-2.2-0.5
				c-0.7-0.1-1.2-0.1-1.8-0.1c-1.1,0-2.1,0-3.6-0.3L-36.3-116.3z"/>
		</g>
		<g>
			<path class="st3" d="M-37-117.1c1.8,0.1,0.9-0.2,2.5,0l-0.8-0.4C-34.9-117.1-37.4-117.3-37-117.1z"/>
		</g>
		<g>
			<polygon class="st3" points="-47.2,-117.3 -48.6,-117.2 -47.5,-117.2 			"/>
		</g>
		<g>
			<polygon class="st3" points="-56.7,-115.4 -55.5,-115.8 -55.6,-115.8 -56.9,-115.4 			"/>
		</g>
		<g>
			<path class="st3" d="M-83.1-99.6c1.3-1.3,0.9-1.3,1.6-2.2c-0.7,0.8-1.2,1.2-1.6,1.7c-0.5,0.5-0.9,1.1-1.7,2
				C-83.5-99.4-83.2-99.8-83.1-99.6z"/>
		</g>
		<g>
			<path class="st3" d="M-81-102.3c-0.2,0.2-0.4,0.4-0.5,0.5C-81.3-101.9-81.2-102.1-81-102.3z"/>
		</g>
		<g>
			<path class="st3" d="M-85.9-96.7c-0.1-0.2-1,1.2-0.8,0.9C-86.5-96.1-86.1-96.5-85.9-96.7z"/>
		</g>
		<g>
			<path class="st3" d="M-79.4-99.1c0.2-0.1,1-0.9,1.4-1.2C-78.5-99.9-79.1-99.7-79.4-99.1z"/>
		</g>
		<g>
			<path class="st3" d="M-89.3-90.8c0.2-0.3,0.6-0.7,0.6-0.4C-88.5-91.7-88.3-92.4-89.3-90.8z"/>
		</g>
		<g>
			<path class="st3" d="M-81.4-96.8c0.2-0.3,0.5-0.7,0.7-1c-0.3,0.4-0.6,0.8-1,1.2L-81.4-96.8z"/>
		</g>
		<g>
			<path class="st3" d="M-97.2-71.2v-1l-0.2,1.2C-97.3-71.3-97.2-70.6-97.2-71.2z"/>
		</g>
		<g>
			<path class="st3" d="M-97.4-70.7v-0.2C-97.4-70.9-97.4-70.8-97.4-70.7z"/>
		</g>
		<g>
			<path class="st3" d="M-97.4-65.9c0,0.6-0.1,1.2-0.1,1.7v-0.1C-97.5-64.9-97.4-65.4-97.4-65.9z"/>
		</g>
		<g>
			<path class="st3" d="M-97.8-56.6c0.1,0.4,0.2,0.9,0.3,1.3v-0.3c-0.1-0.4-0.2-0.9-0.2-1.3L-97.8-56.6z"/>
		</g>
		<g>
			<path class="st3" d="M-44.8-6c0.7,0,1.8,0,2.5,0.1c0.2-0.1-0.7-0.3-0.6-0.5c-1.3-0.1-2.1-0.1-2.9,0c-0.4,0-0.8,0.1-1.2,0.1
				c-0.5,0-1,0-1.6-0.2c0.1-0.2,1-0.2-0.8-0.4h0.4c-1.4-0.1-1.9-0.3-2.3-0.4c-0.4-0.1-0.7-0.2-1.6-0.1l0.1-0.2
				c-0.6,0-1.5-0.2-2.5-0.4c-0.9-0.2-1.8-0.5-2.5-0.6h0.1c-3.8-0.9-2.1-0.5-6.2-2.1c0.6,0.2,1.3,0.3,2,0.5c-1.3-0.6-1.8-0.5-2.7-1
				c0.1,0,0-0.2,0.6,0c-1.6-0.5-3.1-1.1-4.6-1.8c-1.2-0.5,0.1,0.3,0.3,0.5c-0.5-0.1-2.4-1.3-2.4-1.5c0.3,0.1,1.4,0.7,0.8,0.2
				c-0.6-0.2-1.2-0.4-1.7-0.6c-1.9-1.5,1.8,0.6,2.9,1c-1-0.6-1.8-1-2.5-1.4s-1.5-0.8-2.5-1.5c0.6,0.5,0.9,0.8,1.2,1.1
				c0,0.1-0.6-0.1-1.2-0.6c-0.7-0.5-1.5-1.1-2.2-1.6c0.8,0.8,0.2,0.5-0.5,0.1c-0.1-0.1-0.2-0.1-0.3-0.2c-0.1,0-0.2-0.1-0.2-0.1
				l0.2,0.1c0,0,0,0.1,0.1,0.2c1.2,0.9,2,1.7,2.8,2.3c-0.2-0.5,0.4,0,1.3,0.6s2,1.4,2.6,1.6l1.2,0.6l0.4,0.3
				c0.1,0.1-0.1,0.1-0.8-0.2c0.6,0.3,2.6,1.3,2.4,1.1c0.7,0.4,1.5,0.7,2.3,1.1l1.1,0.5l1.2,0.5c0.1,0.1,0.3,0.2,0.4,0.2
				c0.2,0,0.2,0,0.2,0c6.8,2.6,14,3.8,21.3,3.7c-1.1,0-2-0.2-3.1-0.2C-41.8-5.8-45.3-5.7-44.8-6z"/>
		</g>
		<g>
			<path class="st3" d="M-73.7-16.4c-0.2-0.2-0.5-0.4-0.8-0.6C-74.2-16.8-74-16.6-73.7-16.4z"/>
		</g>
		<g>
			<path class="st3" d="M-38.9-5.4c-0.5,0-1,0-1.5,0.1C-39.9-5.3-39.4-5.3-38.9-5.4z"/>
		</g>
		<g>
			<path class="st3" d="M-77.9-19c-0.7-0.6-1.4-1.2-2-1.8c0.6,0.7-0.6-0.3-0.8-0.4l1.2,1.1l1.3,1.1C-78.3-19-77.9-18.9-77.9-19z"/>
		</g>
		<g>
			<path class="st3" d="M-77.7-18.2c0.1,0,0.4,0.2,0.8,0.4c-0.5-0.4-0.9-0.8-1.4-1.2C-78.3-18.9-78.2-18.7-77.7-18.2z"/>
		</g>
		<g>
			<path class="st3" d="M-28-8c0.2,0,0.4-0.1,0.7-0.2C-27.5-8.1-27.7-8-28-8z"/>
		</g>
		<g>
			<path class="st3" d="M-19.9-10.5c-2.1,0.9-5.4,1.8-5.8,2.2c0-0.1,0-0.1-0.3,0l-1.3,0.6L-26-8c-0.6,0.3-2.1,0.8-3.5,1.1
				c-1.4,0.3-2.8,0.5-3.2,0.4c1.3-0.3,1.6-0.4,2-0.6s1-0.3,2.8-0.6c-0.2,0-0.9,0-0.1-0.3c-4.1,1.1-7.9,1.5-12.3,1.9
				c1.7,0.1,1.2,0.2,0.3,0.3c-0.9,0.1-2,0.2-1.5,0.4l1.9-0.2l-0.2,0.1c0.8,0,1.6-0.1,2.3-0.2C-38-5.8-38.3-5.8-38.3-6
				c3.1-0.2,1,0.2,3.3,0.1c1.2-0.1,2.3-0.3,3.4-0.5l-0.3,0.1c0.3-0.1,0.4-0.1,0.5-0.1c3.8-0.8,7.6-1.9,11.2-3.4
				C-18.1-10.8-21.2-9.7-19.9-10.5z"/>
		</g>
		<g>
			<path class="st3" d="M-2.1-22.6L-2.1-22.6C-2-22.6-2-22.7-2.1-22.6z"/>
		</g>
		<g>
			<path class="st3" d="M-3.3-21.2c0.1-0.1,0.1-0.3,0.2-0.4C-3.5-21-4-20.5-4.4-20L-3.3-21.2c0.5-0.3,0.9-0.7,1.2-1.1v-0.3
				C-2.2-22.3-2.9-21.4-3.3-21.2z"/>
		</g>
		<g>
			<path class="st3" d="M-6.1-18.3c1.2-1.1,0.9-1.3,0.2-0.8c1.1-1.1,0.8-0.3,1.4-1.2c-0.2-0.1-1.5,1.2-1.8,1.5L-6.1-18.3z"/>
		</g>
		<g>
			<path class="st3" d="M-16.6-11.7l0.4-0.3c-0.3,0.2-0.7,0.3-1.1,0.5L-16.6-11.7z"/>
		</g>
		<g>
			<path class="st3" d="M-15.6-12.6l-0.6,0.5l1-0.5C-15.3-12.5-15.4-12.6-15.6-12.6z"/>
		</g>
		<g>
			<path class="st3" d="M-11.1-14.8c-0.5,0.3-1,0.6-1.5,0.9C-12.1-14.2-11.6-14.4-11.1-14.8z"/>
		</g>
		<g>
			<path class="st3" d="M-13.6-13.3l1.1-0.6C-12.9-13.7-13.3-13.5-13.6-13.3L-13.6-13.3z"/>
		</g>
		<g>
			<path class="st3" d="M-13.2-13.2l-0.4-0.1l-1.5,0.8C-14.9-12.4-14.6-12.3-13.2-13.2z"/>
		</g>
		<g>
			<path class="st3" d="M-7.4-17.3c-0.3,0.2-0.7,0.5-1,0.8C-8.4-16.4-7.8-17-7.4-17.3z"/>
		</g>
		<g>
			<path class="st3" d="M11.1-43.4c-0.1,0.2-0.2,0.4-0.3,0.7C10.9-42.9,11-43.2,11.1-43.4z"/>
		</g>
	</g>
	<g>
		<path class="st4" d="M-18.4-61.6c0,8.7-4.9,16.4-12.1,20.2c-3.2,1.7-6.9,2.7-10.7,2.7c-12.6,0-22.9-10.2-22.9-22.9
			c0-12.6,10.2-22.9,22.9-22.9C-28.6-84.5-18.4-74.2-18.4-61.6z"/>
	</g>
	<path class="st4" d="M23.4-61.6c0,8.3-4.7,15.6-11.5,19.2c-3,1.6-6.5,2.5-10.2,2.5c-12,0-21.8-9.7-21.8-21.8
		c0-12,9.7-21.8,21.8-21.8C13.6-83.4,23.4-73.6,23.4-61.6z"/>
	<path class="st5" d="M-22.6-20.6c4.2-3.2,11.2-8.4,15.4-11.6s8.2-1.5,8.9,3.8C2.3-23.1,3.4-14.5,4-9.2c0.6,5.3-2.8,7.9-7.7,5.8
		C-8.6-5.5-16.6-8.9-21.4-11C-26.4-13.2-26.9-17.5-22.6-20.6z"/>
	<g>
		<g>
			<path class="st6" d="M1.4-62.8c0,0.8-0.2,1.4-0.5,2s-0.7,1.1-1.2,1.5s-1.1,0.7-1.9,0.9c-0.7,0.2-1.5,0.3-2.3,0.3
				c-1.2,0-2.3-0.1-3.2-0.5c-0.9-0.3-1.8-0.8-2.5-1.6l2-2c0.5,0.5,1.1,0.8,1.7,1c0.6,0.2,1.3,0.3,2.1,0.3c0.9,0,1.6-0.2,2.1-0.5
				s0.7-0.8,0.7-1.4s-0.2-1-0.5-1.3c-0.2-0.1-0.3-0.3-0.5-0.3c-0.2-0.1-0.5-0.1-0.9-0.2l-1.9-0.3c-1.3-0.2-2.4-0.6-3-1.3
				C-9.1-67-9.5-68-9.5-69.3c0-0.7,0.1-1.3,0.4-1.9c0.2-0.6,0.6-1.1,1.1-1.5s1-0.7,1.7-1c0.7-0.2,1.4-0.4,2.3-0.4
				c1.1,0,2,0.1,2.8,0.4S0.4-73,1-72.3l-1.9,1.9c-0.5-0.5-1-0.8-1.6-0.9c-0.6-0.1-1.1-0.2-1.6-0.2c-0.8,0-1.4,0.2-1.8,0.6
				c-0.4,0.4-0.6,0.9-0.6,1.4c0,0.2,0,0.4,0.1,0.6s0.2,0.4,0.4,0.5s0.4,0.3,0.6,0.4c0.2,0.1,0.5,0.2,0.9,0.2l1.9,0.3
				c0.7,0.1,1.3,0.3,1.8,0.5s0.9,0.5,1.2,0.8c0.4,0.4,0.7,0.9,0.9,1.4C1.3-64.1,1.4-63.5,1.4-62.8z"/>
			<path class="st6" d="M14.3-66c0,0.7,0,1.3,0,1.9s-0.1,1.1-0.2,1.7c-0.1,0.5-0.2,1-0.5,1.4c-0.2,0.4-0.5,0.9-0.9,1.3
				c-0.6,0.6-1.2,1-1.9,1.3S9.3-58,8.4-58S6.7-58.1,6-58.4s-1.3-0.7-1.9-1.3c-0.4-0.4-0.7-0.8-0.9-1.3c-0.2-0.4-0.4-0.9-0.5-1.4
				s-0.1-1.1-0.2-1.7c0-0.6,0-1.2,0-1.9c0-0.7,0-1.3,0-1.9s0.1-1.1,0.2-1.7c0.1-0.5,0.2-1,0.5-1.4c0.2-0.4,0.5-0.9,0.9-1.3
				c0.6-0.6,1.2-1,1.9-1.3C6.7-73.9,7.5-74,8.4-74s1.7,0.1,2.4,0.4c0.7,0.3,1.3,0.7,1.9,1.3c0.4,0.4,0.7,0.8,0.9,1.3
				c0.2,0.4,0.4,0.9,0.5,1.4s0.1,1.1,0.2,1.7C14.2-67.3,14.3-66.7,14.3-66z M11.2-66c0-0.7,0-1.4,0-1.9s-0.1-0.9-0.1-1.2
				c-0.1-0.3-0.1-0.6-0.2-0.8c-0.1-0.2-0.2-0.4-0.4-0.5c-0.2-0.2-0.5-0.5-0.8-0.6c-0.3-0.2-0.7-0.2-1.1-0.2c-0.4,0-0.8,0.1-1.2,0.2
				c-0.3,0.2-0.6,0.4-0.8,0.6c-0.1,0.2-0.3,0.3-0.4,0.5C6.1-69.7,6-69.4,6-69.1c-0.1,0.3-0.1,0.7-0.1,1.2s0,1.1,0,1.9
				c0,0.7,0,1.4,0,1.9S6-63.2,6-62.9c0.1,0.3,0.1,0.6,0.2,0.8c0.1,0.2,0.2,0.4,0.4,0.5c0.2,0.2,0.5,0.5,0.8,0.6
				c0.3,0.2,0.7,0.2,1.2,0.2c0.4,0,0.8-0.1,1.1-0.2c0.3-0.2,0.6-0.4,0.8-0.6c0.1-0.2,0.3-0.3,0.4-0.5c0.1-0.2,0.2-0.5,0.2-0.8
				c0.1-0.3,0.1-0.7,0.1-1.2S11.2-65.3,11.2-66z"/>
			<path class="st6" d="M19-71.1v3.9h6.2v2.7H19v6.4h-3v-15.8h10.3v2.7L19-71.1L19-71.1z"/>
			<path class="st6" d="M27.9-58.2v-15.7h3v15.7C30.9-58.2,27.9-58.2,27.9-58.2z"/>
			<path class="st6" d="M42.8-58.2L41.9-61h-5.6l-0.9,2.8h-3.2l5.7-15.7h2.4L46-58.2H42.8z M39.1-69.2l-2,5.7H41L39.1-69.2z"/>
		</g>
		<g>
			<path class="st6" d="M-6.4-54.6v7.1h-1.7v-7.1h-2.2v-1.5h6.1v1.5H-6.4z"/>
			<path class="st6" d="M-2.8-47.5V-56h5.6v1.5h-4v2h3.4v1.5h-3.4v2h4v1.5H-2.8z"/>
			<path class="st6" d="M10.4-50.2c-0.1,0.4-0.2,0.8-0.4,1.2c-0.2,0.3-0.4,0.6-0.7,0.8C9-48,8.7-47.8,8.4-47.7
				c-0.4,0.1-0.7,0.2-1.1,0.2c-0.9,0-1.7-0.3-2.3-0.9c-0.4-0.4-0.6-0.8-0.7-1.3c-0.1-0.5-0.1-1.2-0.1-2.1s0-1.6,0.1-2.1
				s0.3-0.9,0.7-1.3c0.6-0.6,1.4-0.9,2.3-0.9c0.8,0,1.5,0.2,2.1,0.7s0.9,1.1,1.1,2H8.8c-0.1-0.4-0.2-0.7-0.5-0.9
				c-0.2-0.2-0.6-0.3-1-0.3c-0.5,0-0.8,0.1-1.1,0.4C6.1-54.1,6-54,6-53.9c-0.1,0.1-0.1,0.2-0.1,0.4c0,0.2,0,0.4-0.1,0.7
				c0,0.3,0,0.6,0,1s0,0.8,0,1c0,0.3,0,0.5,0.1,0.7c0,0.2,0.1,0.3,0.1,0.4c0.1,0.1,0.1,0.2,0.2,0.3C6.4-49.1,6.8-49,7.3-49
				c0.4,0,0.7-0.1,1-0.3c0.2-0.2,0.4-0.5,0.5-0.9L10.4-50.2L10.4-50.2z"/>
			<path class="st6" d="M16.4-47.5v-3.6h-2.9v3.6h-1.7V-56h1.7v3.5h2.9V-56h1.7v8.5H16.4z"/>
		</g>
		<g>
			<path class="st6" d="M22.5-53.5c0,0.4-0.1,0.7-0.2,1c-0.1,0.3-0.3,0.6-0.6,0.9c-0.2,0.2-0.5,0.4-0.9,0.6
				c-0.3,0.1-0.7,0.2-1.2,0.2H18v3.2h-1.7v-8.5h3.3c0.4,0,0.8,0.1,1.2,0.2c0.3,0.1,0.6,0.3,0.9,0.6c0.2,0.2,0.4,0.5,0.6,0.9
				C22.4-54.2,22.5-53.9,22.5-53.5z M20.8-53.5c0-0.4-0.1-0.6-0.3-0.9c-0.2-0.2-0.5-0.3-0.9-0.3H18v2.3h1.6c0.4,0,0.7-0.1,0.9-0.3
				C20.7-52.9,20.8-53.2,20.8-53.5z"/>
			<path class="st6" d="M27.7-47.7l-0.5-1.5h-3l-0.5,1.5H22l3.1-8.5h1.3l3.1,8.5H27.7z M25.7-53.7l-1.1,3.1h2.1L25.7-53.7z"/>
			<path class="st6" d="M35.1-47.7l-1.7-3.4h-1.2v3.4h-1.7v-8.5h3.3c0.4,0,0.8,0.1,1.2,0.2c0.3,0.1,0.6,0.3,0.9,0.6
				c0.2,0.2,0.4,0.5,0.5,0.8s0.2,0.7,0.2,1s0,0.6-0.1,0.8c-0.1,0.2-0.2,0.5-0.3,0.6c-0.1,0.2-0.3,0.3-0.5,0.5
				c-0.2,0.1-0.4,0.2-0.6,0.3l1.9,3.7H35.1z M35-53.6c0-0.3-0.1-0.6-0.3-0.8c-0.2-0.2-0.5-0.3-0.9-0.3h-1.6v2.3h1.6
				c0.4,0,0.7-0.1,0.9-0.3C34.9-53,35-53.3,35-53.6z"/>
			<path class="st6" d="M42.9-47.7l-2.2-3.9l-1.1,1.3v2.6H38v-8.5h1.7v3.7l3-3.7h2l-2.8,3.4l3,5.1H42.9z"/>
		</g>
	</g>
</g>
</svg>
