<?xml version="1.0" encoding="utf-8"?>
<!-- Generator: Adobe Illustrator 21.0.0, SVG Export Plug-In . SVG Version: 6.00 Build 0)  -->
<svg version="1.1" id="Layer_1" xmlns="http://www.w3.org/2000/svg" xmlns:xlink="http://www.w3.org/1999/xlink" x="0px" y="0px"
	 viewBox="0 0 230 132" style="enable-background:new 0 0 230 132;" xml:space="preserve">
<style type="text/css">
	.st0{fill:#B7B7B7;}
	.st1{fill:#60B8D7;}
	.st2{fill:#FFFFFF;}
	.st3{fill:#5FBADA;}
	.st4{fill:#58595B;}
</style>
<g>
	<path class="st0" d="M6.1,1.2v2.7h1.4v1.7H6.1v5.2c0,0.4,0.1,0.6,0.2,0.8c0.1,0.2,0.3,0.2,0.7,0.2c0.1,0,0.2,0,0.3,0
		c0.1,0,0.2,0,0.3,0v1.7c-0.3,0-0.5,0-0.8,0c-0.3,0-0.5,0-0.8,0c-0.5,0-0.9,0-1.2-0.1c-0.3-0.1-0.5-0.2-0.7-0.4
		c-0.2-0.2-0.3-0.5-0.3-0.8c-0.1-0.3-0.1-0.7-0.1-1.2V5.6H2.4V3.9h1.2V1.2H6.1z"/>
	<path class="st0" d="M12.9,6.6c0-0.3-0.1-0.5-0.2-0.7c-0.1-0.2-0.2-0.3-0.4-0.4c-0.2-0.1-0.4-0.2-0.6-0.2c-0.3,0-0.5,0.1-0.6,0.2
		c-0.2,0.1-0.3,0.3-0.4,0.4c-0.1,0.2-0.2,0.4-0.2,0.6c0,0.2-0.1,0.5-0.1,0.7v0.4H13C13,7.2,13,6.9,12.9,6.6 M10.5,9.8
		c0,0.3,0,0.6,0.1,0.8c0,0.3,0.1,0.5,0.2,0.7c0.1,0.2,0.2,0.4,0.4,0.5c0.2,0.1,0.3,0.2,0.6,0.2c0.4,0,0.7-0.1,0.9-0.4
		c0.2-0.3,0.3-0.7,0.4-1.4h2.2c0,1.1-0.3,2-0.9,2.5c-0.5,0.6-1.4,0.9-2.6,0.9c-0.9,0-1.6-0.1-2.1-0.4c-0.5-0.3-0.9-0.7-1.1-1.2
		c-0.2-0.5-0.4-1-0.4-1.6C8.1,9.8,8.1,9.2,8.1,8.6c0-0.6,0-1.3,0.1-1.9c0.1-0.6,0.3-1.1,0.5-1.6C9,4.7,9.4,4.3,9.9,4.1
		c0.5-0.3,1.2-0.4,2-0.4c0.7,0,1.3,0.1,1.8,0.3c0.5,0.2,0.8,0.6,1.1,1c0.3,0.4,0.4,0.9,0.5,1.5c0.1,0.6,0.1,1.3,0.1,2v0.6h-4.9V9.8z
		"/>
	<path class="st0" d="M21.2,6.7c0-0.2-0.1-0.4-0.2-0.6c-0.1-0.2-0.2-0.3-0.3-0.4c-0.1-0.1-0.3-0.2-0.6-0.2c-0.3,0-0.5,0.1-0.7,0.2
		C19.2,5.8,19.1,6,19,6.3c-0.1,0.3-0.2,0.6-0.2,1c0,0.4-0.1,0.9-0.1,1.5c0,0.6,0,1.1,0.1,1.5c0,0.4,0.1,0.8,0.2,1
		c0.1,0.3,0.2,0.5,0.4,0.6c0.2,0.1,0.4,0.2,0.7,0.2c0.4,0,0.7-0.2,0.9-0.5c0.2-0.4,0.3-0.9,0.3-1.7h2.3c0,1.3-0.3,2.2-0.8,2.9
		c-0.6,0.7-1.5,1-2.8,1c-0.6,0-1.2-0.1-1.6-0.2c-0.5-0.1-0.8-0.4-1.1-0.8c-0.3-0.4-0.5-0.9-0.7-1.5c-0.2-0.6-0.2-1.5-0.2-2.4
		c0-1,0.1-1.8,0.3-2.4c0.2-0.6,0.5-1.2,0.8-1.5c0.3-0.4,0.8-0.7,1.2-0.8c0.5-0.2,1-0.2,1.6-0.2c1.1,0,2,0.3,2.6,1
		c0.6,0.7,0.9,1.6,0.9,2.7h-2.3C21.3,7.1,21.2,6.9,21.2,6.7"/>
	<path class="st0" d="M27.3,0.8v4.1h0c0.5-0.8,1.3-1.2,2.3-1.2c0.8,0,1.4,0.2,1.8,0.6c0.4,0.4,0.6,1.1,0.6,2.1v7.1h-2.5V6.9
		c0-0.5-0.1-0.8-0.2-1c-0.2-0.2-0.4-0.3-0.8-0.3c-0.9,0-1.3,0.5-1.3,1.6v6.4h-2.5V0.8H27.3z"/>
	<path class="st0" d="M36.1,3.9V5h0c0.3-0.5,0.6-0.8,1-1c0.4-0.2,0.9-0.3,1.4-0.3c0.8,0,1.4,0.2,1.8,0.6C40.8,4.7,41,5.4,41,6.4v7.1
		h-2.5V6.9c0-0.5-0.1-0.8-0.2-1c-0.2-0.2-0.4-0.3-0.8-0.3c-0.9,0-1.3,0.5-1.3,1.6v6.4h-2.5V3.9H36.1z"/>
	<path class="st0" d="M44.9,10c0,0.4,0.1,0.8,0.2,1.1c0.1,0.3,0.2,0.5,0.4,0.7c0.2,0.2,0.4,0.2,0.7,0.2c0.5,0,0.8-0.3,1-0.8
		c0.2-0.5,0.3-1.4,0.3-2.6c0-1.2-0.1-2.1-0.3-2.6c-0.2-0.5-0.5-0.8-1-0.8c-0.3,0-0.5,0.1-0.7,0.2C45.2,5.7,45.1,6,45,6.3
		c-0.1,0.3-0.1,0.7-0.2,1.1c0,0.4,0,0.9,0,1.4C44.8,9.2,44.8,9.6,44.9,10 M42.6,6.5c0.1-0.6,0.3-1.2,0.6-1.6c0.3-0.4,0.7-0.7,1.2-1
		c0.5-0.2,1.1-0.3,1.8-0.3c0.7,0,1.3,0.1,1.8,0.3c0.5,0.2,0.9,0.5,1.2,1c0.3,0.4,0.5,1,0.6,1.6c0.1,0.6,0.2,1.4,0.2,2.2
		c0,0.8-0.1,1.5-0.2,2.2c-0.1,0.6-0.3,1.2-0.6,1.6c-0.3,0.4-0.7,0.7-1.2,0.9c-0.5,0.2-1.1,0.3-1.8,0.3c-0.7,0-1.3-0.1-1.8-0.3
		c-0.5-0.2-0.9-0.5-1.2-0.9c-0.3-0.4-0.5-0.9-0.6-1.6c-0.1-0.6-0.2-1.4-0.2-2.2C42.4,7.9,42.4,7.2,42.6,6.5"/>
	<rect x="51.3" y="0.8" class="st0" width="2.5" height="12.7"/>
	<g>
		<path class="st0" d="M57.7,10c0,0.4,0.1,0.8,0.2,1.1c0.1,0.3,0.2,0.5,0.4,0.7c0.2,0.2,0.4,0.2,0.7,0.2c0.5,0,0.8-0.3,1-0.8
			c0.2-0.5,0.3-1.4,0.3-2.6c0-1.2-0.1-2.1-0.3-2.6c-0.2-0.5-0.5-0.8-1-0.8c-0.3,0-0.5,0.1-0.7,0.2c-0.2,0.2-0.3,0.4-0.4,0.7
			c-0.1,0.3-0.1,0.7-0.2,1.1c0,0.4,0,0.9,0,1.4C57.6,9.2,57.6,9.6,57.7,10 M55.4,6.5C55.5,5.9,55.7,5.4,56,5c0.3-0.4,0.7-0.7,1.2-1
			c0.5-0.2,1.1-0.3,1.8-0.3c0.7,0,1.3,0.1,1.8,0.3c0.5,0.2,0.9,0.5,1.2,1c0.3,0.4,0.5,1,0.6,1.6c0.1,0.6,0.2,1.4,0.2,2.2
			c0,0.8-0.1,1.5-0.2,2.2c-0.1,0.6-0.3,1.2-0.6,1.6c-0.3,0.4-0.7,0.7-1.2,0.9c-0.5,0.2-1.1,0.3-1.8,0.3c-0.7,0-1.3-0.1-1.8-0.3
			c-0.5-0.2-0.9-0.5-1.2-0.9c-0.3-0.4-0.5-0.9-0.6-1.6c-0.1-0.6-0.2-1.4-0.2-2.2C55.2,7.9,55.2,7.2,55.4,6.5"/>
		<path class="st0" d="M66.3,9.9c0,0.3,0.1,0.6,0.2,0.8c0.1,0.2,0.2,0.4,0.4,0.6c0.2,0.1,0.4,0.2,0.6,0.2c0.3,0,0.5-0.1,0.6-0.2
			c0.2-0.1,0.3-0.3,0.4-0.6c0.1-0.2,0.2-0.5,0.2-0.9c0-0.3,0.1-0.7,0.1-1.1c0-1.2-0.1-2-0.3-2.5c-0.2-0.5-0.5-0.7-1-0.7
			c-0.3,0-0.5,0.1-0.7,0.2c-0.2,0.1-0.3,0.3-0.4,0.6c-0.1,0.3-0.2,0.6-0.2,1.1c0,0.4,0,1,0,1.6C66.3,9.3,66.3,9.6,66.3,9.9 M71.2,13
			c0,1.2-0.3,2.2-0.9,2.8c-0.6,0.6-1.6,0.9-3.1,0.9c-1,0-1.8-0.2-2.4-0.7C64.2,15.6,64,15,64,14.1h2.3c0,0.3,0.1,0.6,0.4,0.7
			c0.1,0.1,0.2,0.1,0.4,0.2c0.1,0,0.3,0.1,0.4,0.1c0.5,0,0.8-0.2,1.1-0.5c0.2-0.3,0.3-0.7,0.3-1.2v-1.3h0c-0.2,0.4-0.6,0.6-0.9,0.9
			c-0.4,0.2-0.7,0.3-1.1,0.3c-1,0-1.7-0.4-2.2-1.1c-0.5-0.7-0.7-2-0.7-3.7c0-0.6,0-1.1,0.1-1.7c0.1-0.6,0.2-1.1,0.4-1.6
			c0.2-0.5,0.5-0.9,0.9-1.1c0.4-0.3,0.9-0.4,1.6-0.4c0.3,0,0.7,0.1,1.1,0.3c0.4,0.2,0.7,0.5,0.9,1h0V3.9h2.4V13z"/>
		<path class="st0" d="M73.8,14.8c0.5,0,0.8-0.1,1-0.4c0.2-0.2,0.3-0.6,0.3-0.9l-2.7-9.6h2.6l1.4,6.6h0l1.2-6.6h2.5l-2.3,8.9
			c-0.2,0.8-0.4,1.4-0.6,1.9c-0.2,0.5-0.4,0.9-0.7,1.1c-0.3,0.3-0.6,0.4-1,0.5c-0.4,0.1-0.8,0.1-1.4,0.1h-1v-1.8
			C73.3,14.8,73.5,14.8,73.8,14.8"/>
	</g>
	<polygon class="st0" points="85.3,10.1 85.3,7.9 88.7,7.9 88.7,4.5 90.9,4.5 90.9,7.9 94.3,7.9 94.3,10.1 90.9,10.1 90.9,13.5 
		88.7,13.5 88.7,10.1 	"/>
	<path class="st0" d="M5.7,29.6H3.2v-9.6h2.5V29.6z M5.7,18.9H3.2v-2.1h2.5V18.9z"/>
	<g>
		<path class="st0" d="M9.8,20.1v1.1h0c0.3-0.5,0.6-0.8,1-1c0.4-0.2,0.9-0.3,1.4-0.3c0.8,0,1.4,0.2,1.8,0.6c0.4,0.4,0.6,1.1,0.6,2.1
			v7.1h-2.5V23c0-0.5-0.1-0.8-0.2-1c-0.2-0.2-0.4-0.3-0.8-0.3c-0.9,0-1.3,0.5-1.3,1.6v6.4H7.4v-9.6H9.8z"/>
		<path class="st0" d="M18.7,20.1v1.1h0c0.3-0.5,0.6-0.8,1-1c0.4-0.2,0.9-0.3,1.4-0.3c0.8,0,1.4,0.2,1.8,0.6
			c0.4,0.4,0.6,1.1,0.6,2.1v7.1h-2.5V23c0-0.5-0.1-0.8-0.2-1c-0.2-0.2-0.4-0.3-0.8-0.3c-0.9,0-1.3,0.5-1.3,1.6v6.4h-2.5v-9.6H18.7z"
			/>
		<path class="st0" d="M27.4,26.2c0,0.4,0.1,0.8,0.2,1.1c0.1,0.3,0.2,0.5,0.4,0.7c0.2,0.2,0.4,0.2,0.7,0.2c0.5,0,0.8-0.3,1-0.8
			c0.2-0.5,0.3-1.4,0.3-2.6c0-1.2-0.1-2.1-0.3-2.6c-0.2-0.5-0.5-0.8-1-0.8c-0.3,0-0.5,0.1-0.7,0.2c-0.2,0.2-0.3,0.4-0.4,0.7
			c-0.1,0.3-0.1,0.7-0.2,1.1c0,0.4,0,0.9,0,1.4C27.3,25.3,27.4,25.8,27.4,26.2 M25.1,22.7c0.1-0.6,0.3-1.2,0.6-1.6
			c0.3-0.4,0.7-0.7,1.2-1c0.5-0.2,1.1-0.3,1.8-0.3c0.7,0,1.3,0.1,1.8,0.3c0.5,0.2,0.9,0.5,1.2,1c0.3,0.4,0.5,1,0.6,1.6
			c0.1,0.6,0.2,1.4,0.2,2.2c0,0.8-0.1,1.5-0.2,2.2c-0.1,0.6-0.3,1.2-0.6,1.6c-0.3,0.4-0.7,0.7-1.2,0.9c-0.5,0.2-1.1,0.3-1.8,0.3
			c-0.7,0-1.3-0.1-1.8-0.3c-0.5-0.2-0.9-0.5-1.2-0.9c-0.3-0.4-0.5-0.9-0.6-1.6c-0.1-0.6-0.2-1.4-0.2-2.2C24.9,24,25,23.3,25.1,22.7"
			/>
	</g>
	<polygon class="st0" points="40.7,20.1 38.3,29.6 35.5,29.6 33,20.1 35.6,20.1 37,26.9 37,26.9 38.3,20.1 	"/>
	<g>
		<path class="st0" d="M45.6,25.2c-0.2,0.1-0.4,0.1-0.5,0.2c-0.5,0.1-0.9,0.3-1.1,0.5c-0.2,0.2-0.3,0.6-0.3,1c0,0.4,0.1,0.7,0.2,0.9
			c0.1,0.3,0.4,0.4,0.7,0.4c0.2,0,0.3,0,0.5-0.1c0.2-0.1,0.3-0.1,0.5-0.3c0.1-0.1,0.3-0.3,0.4-0.5c0.1-0.2,0.1-0.4,0.1-0.7v-1.9
			C46,25,45.8,25.1,45.6,25.2 M41.6,22.8c0-0.6,0.1-1,0.3-1.4c0.2-0.4,0.4-0.7,0.7-0.9c0.3-0.2,0.7-0.4,1.1-0.5
			c0.4-0.1,0.8-0.2,1.3-0.2c0.7,0,1.3,0.1,1.8,0.2c0.5,0.1,0.8,0.3,1.1,0.6c0.2,0.3,0.4,0.6,0.5,0.9c0.1,0.4,0.1,0.8,0.1,1.2v5
			c0,0.5,0,0.8,0.1,1c0,0.2,0.1,0.5,0.2,0.8h-2.3c-0.1-0.2-0.1-0.3-0.2-0.5c0-0.2-0.1-0.3-0.1-0.5h0c-0.3,0.5-0.6,0.8-1,1
			c-0.4,0.1-0.9,0.2-1.5,0.2c-0.4,0-0.8-0.1-1.1-0.2c-0.3-0.1-0.5-0.4-0.7-0.6c-0.2-0.3-0.3-0.6-0.4-0.9c-0.1-0.3-0.1-0.6-0.1-1
			c0-0.5,0-0.8,0.1-1.2c0.1-0.3,0.2-0.6,0.4-0.8c0.2-0.2,0.4-0.4,0.7-0.6c0.3-0.2,0.7-0.3,1.1-0.4l1.4-0.4c0.4-0.1,0.6-0.2,0.8-0.4
			c0.1-0.2,0.2-0.4,0.2-0.7c0-0.4-0.1-0.7-0.3-0.9c-0.2-0.2-0.5-0.3-0.9-0.3c-0.4,0-0.7,0.1-0.9,0.3c-0.2,0.2-0.3,0.5-0.3,0.9V23
			h-2.2V22.8z"/>
		<path class="st0" d="M53.2,17.3v2.7h1.4v1.7h-1.4v5.2c0,0.4,0.1,0.6,0.2,0.8c0.1,0.2,0.3,0.2,0.7,0.2c0.1,0,0.2,0,0.3,0
			c0.1,0,0.2,0,0.3,0v1.7c-0.3,0-0.5,0-0.8,0c-0.3,0-0.5,0-0.8,0c-0.5,0-0.9,0-1.2-0.1c-0.3-0.1-0.5-0.2-0.7-0.4
			c-0.2-0.2-0.3-0.5-0.3-0.8c-0.1-0.3-0.1-0.7-0.1-1.2v-5.5h-1.2v-1.7h1.2v-2.7H53.2z"/>
	</g>
	<path class="st0" d="M58,29.6h-2.5v-9.6H58V29.6z M58,18.9h-2.5v-2.1H58V18.9z"/>
	<g>
		<path class="st0" d="M61.9,26.2c0,0.4,0.1,0.8,0.2,1.1c0.1,0.3,0.2,0.5,0.4,0.7c0.2,0.2,0.4,0.2,0.7,0.2c0.5,0,0.8-0.3,1-0.8
			c0.2-0.5,0.3-1.4,0.3-2.6c0-1.2-0.1-2.1-0.3-2.6c-0.2-0.5-0.5-0.8-1-0.8c-0.3,0-0.5,0.1-0.7,0.2c-0.2,0.2-0.3,0.4-0.4,0.7
			c-0.1,0.3-0.1,0.7-0.2,1.1c0,0.4,0,0.9,0,1.4C61.9,25.3,61.9,25.8,61.9,26.2 M59.6,22.7c0.1-0.6,0.3-1.2,0.6-1.6
			c0.3-0.4,0.7-0.7,1.2-1c0.5-0.2,1.1-0.3,1.8-0.3c0.7,0,1.3,0.1,1.8,0.3c0.5,0.2,0.9,0.5,1.2,1c0.3,0.4,0.5,1,0.6,1.6
			c0.1,0.6,0.2,1.4,0.2,2.2c0,0.8-0.1,1.5-0.2,2.2c-0.1,0.6-0.3,1.2-0.6,1.6c-0.3,0.4-0.7,0.7-1.2,0.9c-0.5,0.2-1.1,0.3-1.8,0.3
			c-0.7,0-1.3-0.1-1.8-0.3c-0.5-0.2-0.9-0.5-1.2-0.9c-0.3-0.4-0.5-0.9-0.6-1.6c-0.1-0.6-0.2-1.4-0.2-2.2
			C59.4,24,59.5,23.3,59.6,22.7"/>
		<path class="st0" d="M70.6,20.1v1.1h0c0.3-0.5,0.6-0.8,1-1c0.4-0.2,0.9-0.3,1.4-0.3c0.8,0,1.4,0.2,1.8,0.6s0.6,1.1,0.6,2.1v7.1
			h-2.5V23c0-0.5-0.1-0.8-0.3-1c-0.2-0.2-0.4-0.3-0.8-0.3c-0.9,0-1.3,0.5-1.3,1.6v6.4h-2.5v-9.6H70.6z"/>
		<path class="st0" d="M5.5,36.2v1.1h0c0.3-0.5,0.6-0.8,1-1C7,36.1,7.4,36,8,36c0.8,0,1.4,0.2,1.8,0.6c0.4,0.4,0.6,1.1,0.6,2.1v7.1
			H7.9v-6.6c0-0.5-0.1-0.8-0.2-1c-0.2-0.2-0.4-0.3-0.8-0.3c-0.9,0-1.3,0.5-1.3,1.6v6.4H3.1v-9.6H5.5z"/>
		<path class="st0" d="M16.6,39c0-0.3-0.1-0.5-0.2-0.7c-0.1-0.2-0.2-0.3-0.4-0.4c-0.2-0.1-0.4-0.2-0.6-0.2c-0.3,0-0.5,0.1-0.6,0.2
			c-0.2,0.1-0.3,0.3-0.4,0.4c-0.1,0.2-0.2,0.4-0.2,0.6c0,0.2-0.1,0.5-0.1,0.7v0.4h2.5C16.6,39.6,16.6,39.2,16.6,39 M14.1,42.2
			c0,0.3,0,0.6,0.1,0.8c0,0.3,0.1,0.5,0.2,0.7c0.1,0.2,0.2,0.4,0.4,0.5c0.2,0.1,0.3,0.2,0.6,0.2c0.4,0,0.7-0.1,0.9-0.4
			c0.2-0.3,0.3-0.7,0.4-1.4h2.2c0,1.1-0.3,2-0.9,2.5c-0.5,0.6-1.4,0.9-2.6,0.9c-0.9,0-1.6-0.1-2.1-0.4c-0.5-0.3-0.9-0.7-1.1-1.2
			c-0.2-0.5-0.4-1-0.4-1.6c-0.1-0.6-0.1-1.2-0.1-1.8c0-0.6,0-1.3,0.1-1.9c0.1-0.6,0.3-1.1,0.5-1.6c0.3-0.5,0.6-0.8,1.1-1.1
			c0.5-0.3,1.2-0.4,2-0.4c0.7,0,1.3,0.1,1.8,0.3c0.5,0.2,0.8,0.6,1.1,1c0.3,0.4,0.4,0.9,0.5,1.5c0.1,0.6,0.1,1.3,0.1,2v0.6h-4.9
			V42.2z"/>
		<path class="st0" d="M23.3,33.5v2.7h1.4v1.7h-1.4v5.2c0,0.4,0.1,0.6,0.2,0.8c0.1,0.2,0.3,0.2,0.7,0.2c0.1,0,0.2,0,0.3,0
			c0.1,0,0.2,0,0.3,0v1.7c-0.3,0-0.5,0-0.8,0c-0.3,0-0.5,0-0.8,0c-0.5,0-0.9,0-1.2-0.1c-0.3-0.1-0.5-0.2-0.7-0.4
			c-0.2-0.2-0.3-0.5-0.3-0.8c-0.1-0.3-0.1-0.7-0.1-1.2v-5.5h-1.2v-1.7h1.2v-2.7H23.3z"/>
	</g>
	<polygon class="st0" points="27.3,36.2 28.4,43 28.5,43 29.7,36.2 32.3,36.2 33.6,43 33.6,43 34.8,36.2 37.1,36.2 35.1,45.8 
		32.3,45.8 31,39 31,39 29.8,45.8 26.9,45.8 24.9,36.2 	"/>
	<g>
		<path class="st0" d="M40.2,42.4c0,0.4,0.1,0.8,0.2,1.1c0.1,0.3,0.2,0.5,0.4,0.7c0.2,0.2,0.4,0.2,0.7,0.2c0.5,0,0.8-0.3,1-0.8
			c0.2-0.5,0.3-1.4,0.3-2.6c0-1.2-0.1-2.1-0.3-2.6c-0.2-0.5-0.5-0.8-1-0.8c-0.3,0-0.5,0.1-0.7,0.2c-0.2,0.2-0.3,0.4-0.4,0.7
			c-0.1,0.3-0.1,0.7-0.2,1.1c0,0.4,0,0.9,0,1.4S40.2,42,40.2,42.4 M38,38.8c0.1-0.6,0.3-1.2,0.6-1.6c0.3-0.4,0.7-0.7,1.2-1
			c0.5-0.2,1.1-0.3,1.8-0.3c0.7,0,1.3,0.1,1.8,0.3c0.5,0.2,0.9,0.5,1.2,1c0.3,0.4,0.5,1,0.6,1.6c0.1,0.6,0.2,1.4,0.2,2.2
			c0,0.8-0.1,1.5-0.2,2.2c-0.1,0.6-0.3,1.2-0.6,1.6c-0.3,0.4-0.7,0.7-1.2,0.9c-0.5,0.2-1.1,0.3-1.8,0.3c-0.7,0-1.3-0.1-1.8-0.3
			c-0.5-0.2-0.9-0.5-1.2-0.9c-0.3-0.4-0.5-0.9-0.6-1.6c-0.1-0.6-0.2-1.4-0.2-2.2C37.8,40.2,37.8,39.5,38,38.8"/>
		<path class="st0" d="M49,36.2v1.3h0c0.2-0.5,0.6-0.8,0.9-1.1c0.4-0.3,0.8-0.4,1.3-0.4c0.1,0,0.1,0,0.2,0c0.1,0,0.2,0,0.2,0v2.3
			c-0.1,0-0.3,0-0.4,0c-0.1,0-0.3,0-0.4,0c-0.2,0-0.4,0-0.6,0.1c-0.2,0.1-0.4,0.2-0.6,0.3c-0.2,0.1-0.3,0.3-0.4,0.5
			c-0.1,0.2-0.2,0.5-0.2,0.8v5.7h-2.5v-9.6H49z"/>
	</g>
	<polygon class="st0" points="55.1,39.8 55.1,39.8 57.6,36.2 60.3,36.2 57.5,40 60.7,45.8 58,45.8 56,41.9 55.1,43 55.1,45.8 
		52.6,45.8 52.6,33.1 55.1,33.1 	"/>
</g>
<g>
	<g>
		<g>
			<path class="st1" d="M195.2,70.1c0-1.1-0.1-2.1-0.1-3.2l0.1,0.2c-0.2-0.7-0.2-2.1-0.2-2.6c0.1,0.1,0.1,0,0.2,0.6
				c-0.2-1.9-0.4-2.1-0.5-2.3c-0.2-0.2-0.3-0.2-0.6-1.8c0,0.2,0.1,0.4,0.1,0.8c0.1,0.8,0.1,1.4,0,1.2c0.4,1.5,0.2,1.6,0.5,1.8
				c0.2,1,0.1,2.1-0.1,1c0.1,1,0.3,1.9,0.4,2.9c0-0.6,0-1.2,0-1.7C195.2,67.3,194.9,69.6,195.2,70.1z"/>
		</g>
		<g>
			<path class="st1" d="M194.3,60.4c-0.2-0.5-0.2-1-0.3-1.5c0.3,0.8,0.6,1.7,0.9,2.5c0.1-0.4,0-1.3-0.1-2.2
				c-0.2-0.9-0.4-1.8-0.4-2.3c0,1.3-0.4-1-0.1,1.5l-0.7-1.2c-0.1-0.7-0.3-1.5-0.5-2.2c-0.1,0-0.7-1.5-0.5-0.4
				c0.1,0.2,0.2,0.6,0.3,0.9c-0.2-0.1-0.4-0.8-0.6-1.4c-0.2-0.6-0.4-1.1-0.5-0.7c0.6,1.6,0.6,1.9,1.1,2.9c0.3,1.6,0.6,2.7,0.6,3.5
				c0.1,0.5,0.3,0.5,0.4,1.1c0-0.1-0.1-0.3-0.1-0.4L194.3,60.4z"/>
		</g>
		<g>
			<path class="st1" d="M92.8,97.8C92.8,97.8,92.8,97.8,92.8,97.8l0.4,0.5c0,0,0,0,0,0C93,98.1,92.9,98,92.8,97.8z"/>
		</g>
		<g>
			<path class="st1" d="M85.2,82.2c0.3,0.9,0.6,1.9,0.9,2.7c-0.2-0.3,0.2,1-0.1,0.4c0.1,0.2,0.4,1.2,0.4,0.9l-0.2-0.6
				c0.7,1.4,0.6,0.5,1.6,2.7c-0.2-0.8-0.3-1.3-0.5-1.7c-0.2-0.4-0.3-0.8-0.5-1.1c-0.1-0.3-0.2-0.5-0.2-0.7c-0.4-0.7-0.7-1.5-1-2.2
				L85.2,82.2z"/>
		</g>
		<g>
			<path class="st1" d="M175.1,112.1l0-0.2C175,112.1,174.6,112.4,175.1,112.1z"/>
		</g>
		<g>
			<path class="st1" d="M187.5,41.7c0.1,0.1,0.1,0.3,0.2,0.4C187.7,42,187.6,41.9,187.5,41.7z"/>
		</g>
		<g>
			<path class="st1" d="M92.4,43.6l0.4-0.6C92.6,43.2,92.5,43.4,92.4,43.6z"/>
		</g>
		<g>
			<path class="st1" d="M101.7,29.3l0.8-0.8C102.2,28.8,102,29,101.7,29.3z"/>
		</g>
		<g>
			<path class="st1" d="M182.3,34.5L182.3,34.5c-0.1-0.1-0.1-0.1-0.2-0.1L182.3,34.5z"/>
		</g>
		<g>
			<path class="st1" d="M133.2,15.3c0,0-0.3,0-0.6,0C132.7,15.3,132.9,15.3,133.2,15.3z"/>
		</g>
		<g>
			<path class="st1" d="M101.6,29.5C101.6,29.4,101.6,29.4,101.6,29.5c0.1-0.1,0.1-0.1,0.1-0.2L101.6,29.5z"/>
		</g>
		<g>
			<path class="st1" d="M88.1,49.9c0,0.2-0.1,0.3-0.1,0.5C88.1,50.1,88.1,50,88.1,49.9z"/>
		</g>
		<g>
			<path class="st1" d="M89.6,49.3c-0.1,0.2-0.1,0.3-0.1,0.5L89.6,49.3z"/>
		</g>
		<g>
			<path class="st1" d="M84.9,74.8l0.1,1C85,75.3,85,75,84.9,74.8z"/>
		</g>
		<g>
			<path class="st1" d="M88.4,51.7c0,0.1,0,0.1,0,0.2C88.4,51.7,88.4,51.7,88.4,51.7z"/>
		</g>
		<g>
			<path class="st1" d="M189.4,47.9C189.4,47.9,189.4,47.9,189.4,47.9L189.4,47.9L189.4,47.9z"/>
		</g>
		<g>
			<path class="st1" d="M190.9,49.9c0.1,0.3,0.2,0.5,0.4,0.8C191.1,50.4,191,50.1,190.9,49.9z"/>
		</g>
		<g>
			<path class="st1" d="M147.2,15.8c0.3,0.1,0.9,0.2,0.6,0.3C148.3,16.1,148.3,15.8,147.2,15.8z"/>
		</g>
		<g>
			<path class="st1" d="M192,52c0.3,0,0.8,1.9,1.1,2.7c-0.1-0.6,0.3,0.2,0.3,0c-0.2-0.4-0.4-0.9-0.6-1.6c0-0.4,0.5,0.6,0.6,1.5
				c-0.1-1,0.6,1.2,0.3-0.2c-1-3-1.9-5.1-3.3-6.9c0.2,0.4,0.4,0.8,0.6,1.2c0.2,0.4,0.4,0.9,0.5,1.3c0.2,0.4,0.3,0.8,0.5,1.2
				c0.1,0.4,0.2,0.8,0.3,1.1L192,52c-0.1-0.9-0.4-1.5-0.6-2.1c-0.2-0.6-0.5-1.2-0.9-2c0.5,1.1,0.8,2.3,1.3,3.4
				c0.3,1.7,0,0.6-0.6-0.6c0.1,0.3,0.2,0.6,0.2,0.7C191.6,51.5,193,55.1,192,52z"/>
		</g>
		<g>
			<path class="st1" d="M188.7,47.6L188.7,47.6C188.7,47.6,188.7,47.6,188.7,47.6z"/>
		</g>
		<g>
			<path class="st1" d="M84.6,64.6C84.6,64.8,84.7,64.7,84.6,64.6C84.7,64.6,84.7,64.6,84.6,64.6z"/>
		</g>
		<g>
			<path class="st1" d="M144.7,14.4c0.3,0,0.6,0,0.9,0.1C145.2,14.4,144.9,14.4,144.7,14.4z"/>
		</g>
		<g>
			<path class="st1" d="M160.6,20.7c-0.2-0.1-0.4-0.2-0.6-0.2c0,0-0.1,0-0.1,0C160,20.6,160.4,20.7,160.6,20.7z"/>
		</g>
		<g>
			<path class="st1" d="M114.6,23.8c0.2-0.1,0.4-0.3,0.5-0.4C114.8,23.6,114.7,23.7,114.6,23.8z"/>
		</g>
		<g>
			<path class="st1" d="M193.8,74.6c-0.1,0,0-0.7-0.1-1c-0.2,0.1,0,1.3-0.3,2.7l0-2.3l0,0c0.1-1.3,0.1-2.5,0.1-3.8
				c0-11.6-3.7-22.3-10.1-31c1.2,1.2,1.9,2.8,3,4.2c-0.1,0-0.2-0.2,0,0.1c0.5,1,1,1.6,1.4,2.2c0.4,0.6,0.8,1.2,1.1,2.1l-0.2-0.1
				c0.1,0.1,0.6,1.1,0.7,0.8c-0.3-0.7-0.6-1.1-0.8-1.5c-0.2-0.4-0.4-0.7-0.7-1.4c0.4,0.4,1,1.5,1.4,2.3l0.3,0
				c0.7,0.9,0.8,2.2,1.5,3.2l-0.3-1.3c0,0,0.1,0.1,0.1,0.2c-0.2-0.6-0.5-1-0.6-1.2c-0.5-0.9-0.7-1.6-0.9-2.2
				c-0.2-0.5-0.2-0.9-0.2-1.1c-0.4-0.9,0.4,0.2,0.5,0c-0.8-1.4-1-1.2-1.8-2.5c-0.2-0.4-0.1-0.3,0.1-0.1l-0.6-0.8
				c0.1-0.1-1.4-2.4-0.3-1.1c0.1,0.2,0.4,0.6,0.5,0.9c-1-2-3-5.2-2.8-5.2c-0.7-1-0.6-0.7-1.7-2.2c-0.7-0.5-0.3,0.3-1.7-1.2l1,1.3
				c0.3,0.2,0.5,0.4,0.7,0.7l-1.1-1.3c0.8,0.8,0.7,0.5,1.1,0.7c1.7,2,1.8,2.8,2.5,4c-0.6-0.6-1.4-1.7-1.3-1.2c-0.6-1.2-1-1-1.9-2.3
				l0.2,0.2c-1-0.8-0.9-1.1-1.7-1.7c0.1,0,0-0.1,0-0.2c-1.6-1.5,0.3,0.6-1.3-0.9c-1.3-1.4-0.2-0.7-0.5-1.2c1.3,1.1,1.3,1,1.4,0.9
				c0.1,0,0.2-0.1,1.5,1.2c0.3-0.2-0.7-1.3-2.1-2.7c0.8,1-0.9-0.2,0.1,1.1c-2.2-1.9-2.4-1.3-4.6-3.6l0.1,0c-0.4-0.2-0.8-0.4-1.2-0.6
				c-0.4-0.4-0.9-0.8-1.3-1.2c1.1,0.4,2.1,1.4,2.9,1.8c-1.5-1.7-2.5-1.6-4.6-3.1c-1.5-1.5,2.2,1.3,2.4,1.1c-0.5-0.2-1.5-1.2-1.3-1.2
				c1.9,1.5,1.3,0.7,3.3,2.5c-1.1-0.7,0.1,0.2-0.2,0.2c0.4,0.2,2.3,1.7,3.5,3c0.5,0.1-0.9-1.2-1.7-2c-0.9-0.6-1.7-1.3-2.5-2
				c-0.4-0.3-0.8-0.7-1.1-0.9c-0.4-0.3-0.8-0.5-1.1-0.7c-1.9-1.3,0-0.3-0.1-0.4c-0.8-0.7-1-0.7-1.1-0.7c-0.1,0,0,0.2-0.3,0
				c-1.4-0.8-2-1.3-2.7-1.7c-0.6-0.4-1.1-0.9-2.1-1.4c-1.8-0.6-5.8-2.5-8.8-3.5c0.4,0,0-0.2-0.1-0.4c-1.9-0.1-1.2-0.1-3.6-0.4
				c0.6,0.2,1.2,0.4,1.9,0.7c-1.5-0.4-2.8-0.3-4.2-0.9c1.8,0.8-2.5-0.2-3.7-0.2c-1.6-0.4-3.2-0.2-4-0.5l0.2,0
				c-0.8-0.1-1.5-0.1-2.3-0.1l0.3-0.4c-1.6-0.2-3.6,0.2-3,0.3c-1.7-0.1-0.7-0.1-0.9-0.3c0.9-0.1,3-0.6,3.6-0.2c-0.1,0-0.5-0.1-0.6,0
				c2.2,0.1,2.6,0,2.7-0.1c0.1-0.2-0.1-0.4,1-0.3c-1.1-0.1-2-0.3-3.3-0.3c-0.6,0-2.9,0.2-4.1,0.4c1.6-0.2,2.4-0.1,3.7,0.1
				c-1.1-0.1-1.2,0.2-2.2,0.1l0.3-0.1l-1.2,0.2c-0.2-0.3-3.2,0.1-1.5-0.3c-1.6,0.2-0.5,0.2-2,0.5c0.9-0.1,1.9-0.1,2.8-0.1l0,0.3
				c-1,0.2-1.3,0.1-2.4,0.2l0.1,0.3c-0.7,0-1.4,0-2,0c0.3,0.2-1.3,0.3-1.7,0.4c-1.1,0.1-0.5-0.5-2.3,0.1l0.1,0
				c-1,0.4-1.7,0.5-3.2,0.8c0.1-0.1,0.5-0.2,0.7-0.3c-2.2,0.4-5.3,1.9-6.4,1.9c0.1-0.3,1-0.5,0.9-0.7c3.3-0.8,2.1-1.2,6-2.1
				c0.2,0.3,1,0,1.8-0.3c0.9-0.3,1.8-0.5,2.3-0.3c-0.8,0.1-1.7,0.3-2.3,0.5c-0.6,0.2-1.1,0.4-0.9,0.4c0.3-0.1,0.7-0.2,1.1-0.3
				c0.4-0.1,0.8-0.2,1.2-0.2c0.8-0.1,1.5-0.3,2-0.3c-0.9-0.1-0.7-0.4-0.1-0.7c-0.6,0.1-1.3,0.3-2,0.4c-0.4,0.1-0.8,0.1-1.2,0.2
				c-0.4,0.1-0.8,0.2-1.3,0.2c-0.4,0.1-0.9,0.2-1.3,0.2c-0.4,0.1-0.9,0.2-1.3,0.3c-0.9,0.2-1.8,0.4-2.5,0.7l0.5,0.2
				c-2.6,1.2,0.2-0.4-1.9,0.3c-0.3,0.2-0.6,0.4-0.8,0.6l-0.1,0l-1.4,0.9c1.1-0.4,0.5-0.5,1.7-0.8c1.1-0.3,0,0.3-0.2,0.6
				c-0.4,0.1-1.2,0.4-1.7,0.6c-0.5,0.2-0.8,0.3-0.1-0.2c-0.9,0.5-1.7,1-2.6,1.6c0-0.1,0.5-0.5,0.8-0.7c-0.7,0.3-1.3,0.7-1.9,1l0-0.1
				c-1.5,0.9-3.6,2.2-4.6,3.1c2.6-1.4-1,1-0.7,1c-0.9,0.6-1.5,0.3,0.2-1.2c0.6-0.2,1.8-1.2,2.8-1.8c-1.4,0.6-1.6,1-2.6,1.7
				c0.6-0.6-1.4,0.7-1.4,0.6c0.1-0.2,0.3-0.7,1.6-1.4c1.9-1.2,0.4,0.1,0.9-0.3c0.7,0,2.6-1.6,3.9-2.2c0.1,0-0.2,0.2-0.4,0.3
				c0.5-0.3,1.3-0.7,2-1c0.7-0.3,1.3-0.7,1.3-0.8c-0.9,0.5-1.7,0.9-2.6,1.4c-0.6,0.2,0.7-0.6-0.2-0.3c-0.6,0.4-1.3,0.7-2,1.1
				l0.1-0.2c-1.6,0.7-4,2.2-5.6,3.5c-0.1,0.7-0.8,1.5-1.1,2.5c-2.3,1.8-4.7,3.9-6.9,6.2c0.1,0,0.2,0.1,0.1,0.3
				c-0.7,0.6-1.7,1.9-1.9,1.7c-0.4,0.9-1.9,3.2-1.4,2.9c-0.1,0.1-0.1,0.2-0.2,0.3c-0.9,0.8-2.1,2-3.7,4.7c-0.3,0.5-0.2,0.7,0.1,0.7
				c-0.4,0.5-0.7,1.1-1,1.6c0.1-0.5,0.1-0.8,0.6-1.6c-0.8,1.4-1.6,2.8-2.2,4.3l0-0.4c-0.2,0.6-0.4,1.2-0.6,1.8c0.3-1,1.1-2.5,1.2-2
				c-0.4,1-0.7,1.8-1,2.5c-0.3,0.7-0.6,1.5-0.7,2.4c-0.4-0.2-0.7,0.4-0.7-0.3c0-0.1,0.1-0.2,0.1-0.2c0-0.7,0.3-2.2,0.7-3.3
				c-0.8,1.9-1.1,2.6-1.3,3.2c-0.1,0.3-0.2,0.6-0.4,1.1c-0.2,0.4-0.4,1-0.6,1.9c-0.2,0.1,0-0.7,0.2-1.5c0.2-0.7,0.4-1.4,0.1-1.1
				c0.4-1.1,0.8-2.1,1.3-3.1c-0.2,0.5-0.2,0.6-0.2,0.9c0.3-1.1,0.6-1.9,0.9-2.5c0.3-0.7,0.5-1.3,0.8-2.1c0.3-0.5,0.2-0.1,0,0.3
				c-0.2,0.4-0.3,0.8,0,0.2c-0.4,1-0.5,2-0.5,2.5c0.6-1.2,0.7-1.6,0.7-1.9c0-0.3,0-0.7,0.5-1.7c0.3-0.5,0.6-0.9,1-1.4
				c0.5-0.9-0.3,0.2-0.4,0.2c0.5-1.1,0.9-1.4,1.4-2.3c-0.2,0.2-0.6,0.7-0.6,0.5c0.5-0.6,0.9-1.3,1.3-1.9c0.4-0.6,0.9-1.2,1.5-1.7
				c-0.6,0.6,0.2-1,0.5-1.6c-0.7,0.7-1.4,1.5-2,2.2c-2,3.3-3.3,5.3-4.8,9.1l0-0.3c-1.5,2.9-1.7,4.3-1.9,5.5c-0.1,1.3-0.2,2.4-0.8,5
				c-0.4,0.1-0.4,2.5-0.7,2.2c0.3-1.6,0.1-1.3-0.1-0.9c0,1,0.1,1.6-0.3,3.5c-0.1-0.7-0.5,0.9-0.3-0.9c-0.4,2.5-0.4,3.9-0.2,5.2
				c0.2,4.1-0.5,1.2-0.2,5.3l-0.2-0.6c0,0.9,0.1,1.7,0.2,2.6l0.1-0.9c0.2,1,0.3,2,0.5,3c0.4,1.8,0.1-0.8,0.3-0.6
				c-0.1-0.2-0.2-0.4-0.3-0.6c0-1.2-0.4-2.9-0.2-3.2c0.1,2,0.3,1.5,0.5,2.3L84.7,73l0.2-0.6c0-0.9,0-1.8,0-2.5c0-0.7,0-1.4-0.1-1.9
				c-0.1,0.8,0.2,1.3,0,2c-0.2-0.5-0.2-1.3-0.3-2.3c0-1,0.1-2.1,0.1-3.3c0.1-0.1,0.2-0.8,0.2-0.5c0,0,0,0.4-0.1,0.7
				c0.2-0.2,0.1,1.1,0.4-1c0.1,0.8,0.4,2.4,0.5,2.3c-0.1,1.2-0.1,2.9-0.2,3.9l0-0.1c0,1.1,0.3,3.3,0,3.5c0.1,0.6,0.3,2.4,0.3,0.6
				c0.1,1,0.2,2,0.4,3c-0.5-0.5-0.2,2.4-0.9-0.5c0,0.1,0.2,1.2,0.5,2.9c0,0,0,0-0.1-0.1c0-0.1-0.1-0.2-0.1-0.2
				c-0.1-0.4-0.1-0.6,0-0.6c-0.4-1-0.3,0.6,0,2.2l0.3,0.3c0,0.7,0.1,1.3,0.2,1.9c0.1,0.6,0.2,1.3,0.5,2.2c0.4,0.7,0.7,1.4,1,2l1.1,2
				c0.2,0.4,0.3,0.8,0.5,1.2c0.1,0.6,0.9,2.3,0.4,1.7c0,0.2-0.3-0.4-0.6-1.2c0-0.1,0.1,0.1,0.1-0.1c-0.2-0.2-0.4-0.2-0.2,0.8
				c-0.4-1-0.4-1.1-0.8-1.8l0.4,1c-0.2-0.4-0.4-0.8-0.6-1.2c-0.2-0.4-0.4-0.8-0.6-1.2c-0.4-0.7-0.7-1.3-0.8-1.2
				c0.4,0.4,0.5,1.4,0.7,2.3c-0.3-0.6-0.9-1.9-0.6-0.9c0.1,0.2,0.4,0.9,0.7,1.4c0.3,0.5,0.4,0.6,0.1-0.4c0.4,0.8,1,1.9,1.3,2.8
				c-0.6-1-0.4-0.3-0.7-0.5c0.5,0.9,0.8,0.8,0.9,0.9c0.3,0.7,0.4,1.3,0.6,1.9c0.2,0.6,0.4,1.1,0.6,1.6c0.4,1.1,0.9,2.1,1.8,3.5
				c0.3,0.4-1.1-1.7-0.8-1.6c0.4,0.5,0.7,0.9,0.9,1.3c0.2,0.4,0.4,0.7,0.6,1.1c0.3,0.7,0.6,1.4,1.3,2.2l-0.1-0.7
				c0.4,0.5,1.4,1.8,1.9,2.4c0,0.2,1.3,2.2,0.2,0.9c0.5,0.8,1,1.3,1.4,1.6c0.4,0.4,0.7,0.6,1.1,0.9c0.4,0.3,0.7,0.5,1.2,0.9
				c0.5,0.4,1,0.9,1.8,1.7c-1.3-1.4-1.5-1.6-2.5-2.7c1.2,1.1,0.3,0.1,0.6,0.1c0.3,0.4,1,1.2,1.4,1.6c0.4,0.5,0.6,0.7-0.2,0
				c0.9,0.9,2.8,2.7,3.4,3l-0.8-0.8c0.7,0.6,1.4,1.2,2.1,1.6c0.7,0.4,1.2,0.7,1.6,0.9c-1.8-1.4-2-1-4.2-3c-2.2-2.4,0.7,0.4-0.6-1.3
				c-0.6-0.5-1.2-0.9-1.8-1.4l0.7,0.8c-0.2,0-0.8-0.7-1.4-1.2c-0.6-0.6-1-1.1-1.1-0.9c-0.6-1-1.1-1.6-1.6-2.2
				c-0.5-0.6-1-1.3-1.6-2.4c-0.5-0.4,0.1,0.4,0.5,0.9c-0.7-1.1-1.1-0.9-1.9-2.4c-0.4-0.8-0.4-0.1,0.5,1.2c-0.4-0.5-0.7-1.1-1.1-1.6
				c-0.4-0.5-0.7-1.1-1.1-1.7c0.2,0.5,0.4,0.9,0.6,1.4c-0.3-0.4-0.6-0.8-0.8-1.3c0.2,0.4,0.4,0.8,0.6,1.2c-1.6-2.5-3.1-5.5-3.4-7
				c0.6,1.1,1.4,2.6,2.2,3.9c0.4,0.7,0.8,1.3,1.2,1.8c0.4,0.5,0.7,0.9,1,1.2c-0.1-0.3-0.4-0.6-0.7-1.1c-0.3-0.4-0.6-0.9-0.6-1.3
				l-0.6-0.5c-0.5-0.7-1.5-2.5-1.4-2.8c0.6,1,1.1,1.7,1.4,2.2c0.4,0.5,0.7,0.8,1.1,1.3c0,0,0.2,0.2,0.4,0.5c0,0,0,0,0,0l0,0
				c0.4,0.6,1,1.6,1.4,2.1c0.4,0.7,0,0.3-0.1,0.3c0.3,0.7,0.7,1.2,1.1,1.7c0.4,0.5,0.8,1,1.2,1.4c0.4,0.4,0.9,0.9,1.3,1.4
				c0.5,0.5,0.9,1,1.4,1.6c-0.2,0.2,1.4,1.9,0.9,1.4c1.2,1.3,2.1,1.8,3,2.5c0,0.3,2,1.8,1.2,1.4c0.5,0.3,0.9,0.6,1.4,0.8
				c0.4,0.4,1.1,0.9,1.7,1.4c0.6,0.4,1.2,0.8,1.3,1c1,0.6,0.4,0,1.8,1c-0.1,0,0,0.1-0.3-0.1c0.3,0.2,0.8,0.6,1.4,1
				c0.6,0.3,1.2,0.6,1.5,0.8c-1-0.6-0.2-0.2-1.4-0.9c0.1-0.1,1.5,0.6,2.9,1.5c-1-0.4-0.7-0.1-0.2,0.2c0.5,0.3,1.1,0.7,0.6,0.5
				c3.1,1.6,5.1,2,7.9,2.6c0.4,0.1,0.8,0.3,1.2,0.4c0.4,0.1,0.9,0.2,1.3,0.4c0.4,0.1,0.9,0.3,1.3,0.4c0.4,0.1,0.9,0.2,1.3,0.3
				c0.4,0.1,0.9,0.2,1.3,0.3c0.4,0.1,0.8,0.1,1.3,0.2c0.8,0.1,1.6,0.2,2.2,0.2l-0.3-0.1l1.6,0c0.9,0.1,0,0.4,1.4,0.4
				c-0.5,0.3-2.5-0.2-3.9-0.2c1.2,0.3,0.6,0.3-0.1,0.3c-0.7-0.1-1.5-0.1-0.7,0.1c0.3-0.1,0.7-0.1,1.3,0c0.6,0,1.3,0.1,2,0.2
				c0.7,0.1,1.5,0.2,2.2,0.2c0.7,0.1,1.4,0.1,2,0c2.1,0.1-1,0.2,0.1,0.3l0.7-0.2c0.8,0.1,1.1,0.1,1.1,0.3c2.3,0.1,4.8-0.2,6.7-0.6
				c-2.4,0.4,0.8-0.4-1.6-0.1c0.7-0.2,2.2-0.4,3.7-0.6c-1.4,0.3,1.9,0.1-1.2,0.5c0.5,0.2,1.5-0.3,2.9-0.5c-0.7,0.2-2.2,0.7-2.1,0.7
				c1-0.3,2.7-0.6,4.2-0.9c1.5-0.3,2.9-0.6,3.2-0.8c1.4-0.7,3.6-1.6,5.2-2.6c1.8-0.5,3.6-1.5,5.4-2.5l-0.3,0.3
				c1-0.6,2.6-1.5,4.1-2.5l0.4,0c1-0.7,2.8-2.1,4.2-3.2c-0.1-0.1-1.4,0.9-0.8,0.3c-0.7,0.6-1.3,1-1,1c-0.7,0.6-0.9,0.4-1.5,0.8
				c0.9-0.7,1.8-1.5,2.7-2.2c0.2-0.2,0.3-0.2,0.3-0.2l0-0.4c0.7-0.6,0.9-0.7,0.9-0.6c0.7-0.7,1.1-1.2,1.6-1.7
				c0.4-0.5,0.9-1.1,1.6-1.8c-0.5,0.8-0.8,1.3-1.8,2.3c0.6-0.5,1.1-1.1,1.7-1.7c-0.3,0.4-1.2,1.4-2,2.2c-0.8,0.8-1.4,1.4-1,1.3
				c0.5-0.5,1-1,1.5-1.5c0.5-0.5,1-1.2,1.6-1.8c1.1-1.2,1.9-2.4,2.6-3.4c0.2-0.2,0.5-0.4,0.7-0.7c0.2-0.3,0.5-0.6,0.7-1
				c0.5-0.7,1-1.5,1.6-2.3c0.2-0.2,0.6-0.7,0.5-0.3l-0.3,0.5c1.5-2.2,3-4.9,3.8-7.1l0.8-1c0.9-1.8,0.7-1.7,0.5-1.6
				c-0.2,0.1-0.4,0.2,0.3-1.7c0.7-0.8,1.8-4.7,2.1-4.8c0.2-0.8,0.3-1.1,0.1-1.2c-0.1,0.3-0.2,0.9-0.3,1.2c-0.1,0.3-0.2,0.5-0.2,0
				c0.3-1.4,0.6-2,0.8-3.1c0,0.1,0,0.9,0.1,0.5c0.1-0.3,0.1-0.7,0.2-1.1c0.1-0.4,0.1-0.8,0.2-1.3c0.1-0.9,0.3-1.8,0.4-2.8
				c0.1-1,0.1-1.9,0.1-2.8c0-0.9-0.1-1.7-0.2-2.3C193.8,73.2,194.1,73.3,193.8,74.6z M87.7,66C87.7,66,87.7,66,87.7,66
				c-0.1,0.2-0.3,0.8-0.5,1.6c-0.1,0.8-0.3,1.8-0.5,2.9c0-2.5,0.2-5.1,0.7-7.6l-0.2,0.3c0.1-0.8,0.1-1.5,0.3-1.9c0,0,0,0.2,0.1,0.7
				c0,0.4,0.1,1,0.1,1.6c0,0.4,0,0.7,0.1,1.1C87.8,65.1,87.8,65.6,87.7,66z M90.4,87.5c0,0.1,0,0.1,0.1,0.1c0.2,0.5,0.2,0.7,0.3,0.9
				C90.6,88.1,90.5,87.8,90.4,87.5z M92.2,48.4c0.2-0.4,0.4-0.8,0.7-1.3c-0.3,0.7-0.7,1.4-1,2.1C91.9,49.1,92,48.8,92.2,48.4z
				 M94.3,96.4L94,96.1c-0.5-0.9-0.9-1.9-1.4-2.8c-0.4-0.9-0.8-1.8-1.1-2.7c0.3,0.6,0.7,1.2,1,2c-0.1-0.2-0.1-0.4-0.2-0.7
				c0.7,1.5,1.4,2.9,2.2,4.4c-0.4-0.5-0.9-1.3-1.3-2.2C93.2,94.2,93.6,95.2,94.3,96.4z M94.9,43.3c-0.1,0.1-0.1,0.2-0.1,0.3
				c0,0,0,0,0,0l0,0c-0.5,0.8-0.9,1.6-1.3,2.4c-0.2,0.2-0.4,0.5-0.6,0.8l0.8-2c0,0.1-0.1,0.1-0.1,0.2c0.3-0.7,0.7-1.3,1-1.9
				C94.8,43.1,95,43.1,94.9,43.3z M120.9,20.8c0.4-0.2,0.8-0.5,1.3-0.8c0.5-0.3,1.1-0.6,1.7-0.9l-0.1,0.1c0.9-0.4,1.9-0.6,2.9-0.9
				l-0.3,0.2c0.5-0.2,1.1-0.4,1.7-0.6c0,0.3,0.6,0,0.5,0.2c0.6,0.1,1.5-0.2,2.6-0.4c1.1-0.3,2.4-0.6,3.6-0.6l-0.3,0.2
				c0.6-0.2,1.7-0.3,3-0.3c1.2,0,2.5,0,3.6,0.1l-0.1,0c-0.9,0.1-1.3,0.2-1.2,0.3c-1,0-1.9,0.1-2.9,0.1c-0.1,0-0.2,0-0.5-0.1
				c-0.3,0.1-0.8,0.1-1.2,0.2c-0.1,0-0.1,0-0.2,0c-1.5,0.2-2.9,0.4-4.3,0.7c0.1-0.1,0.4-0.2,0.7-0.3c-0.5,0.1-0.9,0.2-1.4,0.3
				l-1.4,0.4c-0.9,0.2-1.9,0.5-2.8,0.8c0,0,0,0,0,0c-1.6,0.5-3.2,1-4.7,1.7C121,20.9,120.9,20.8,120.9,20.8z M114.9,23.8
				c-0.3,0.1-0.4,0.1-0.3,0c-0.8,0.5-2.1,1.1-2.5,1.4c0.9-0.4,0.8-0.3,0.3,0.1c-0.4,0.3-0.9,0.5-1.3,0.8c0-0.1,0.2-0.3-0.3,0
				l-1.8,1.3l1.6-1.1l-0.1,0.2c-3.8,2.6-7.3,5.7-10.3,9.3c-0.9,0.7-1.4,1-2,1.3c0.5-0.7,0.9-1.3,1.4-1.8l0.3,0
				c0.6-0.7,1.2-1.3,1.7-1.9c0.5-0.6,1-1.2,1.6-1.8c1-1.2,2.2-2.4,3.7-3.5c-0.3,0.5-1.5,1.3-1.2,1.3c0.9-0.7,1.2-1.1,1.5-1.5
				c0.3-0.4,0.6-0.8,1.6-1.3c-1.3,1-0.8,0.7-0.4,0.4c0.5-0.3,1-0.6-0.1,0.4c3-2.7,7-4.4,9.4-5.6c-0.7,0.1,0.9-0.6,0.9-0.7
				c0.6-0.3,0.5,0,0,0.2c1.3-0.4,1.6-0.3,1.5-0.1c-0.8,0.4-1.7,0.8-2.5,1.2c0.5-0.2,0.8-0.3,1.2-0.4
				C117.4,22.4,116.2,23.1,114.9,23.8z M151.2,122.2c0.2-0.1,0.3-0.2,0.4-0.2c0.4-0.1,0.8-0.2,1.1-0.3
				C152.7,121.8,152.7,122,151.2,122.2z M153.7,121.6c-0.1,0-0.2,0-0.3,0c0.3-0.1,0.6-0.2,1-0.3C154.2,121.4,154,121.5,153.7,121.6z
				 M151.3,90.3c-3.2,1.7-6.9,2.7-10.7,2.7c-12.6,0-22.9-10.2-22.9-22.9c0-12.6,10.2-22.9,22.9-22.9s22.9,10.2,22.9,22.9
				C163.4,78.9,158.5,86.5,151.3,90.3z M164.2,22.7c-4.6-2.3-9.6-4-14.9-4.8c1.3,0.1,2.7,0.2,4.1,0.4c0,0-0.1,0-0.3,0
				c1.1,0.2,1.7,0.5,2.3,0.6c0.6,0.1,1.1,0.3,2,0.6l-0.6-0.1c0.2,0.3,1.8,0.5,3.2,1.1c0.5,0.1,1.4,0.3,1.9,0.7l-0.3,0
				c0.1,0.1,0.5,0.3,1,0.6c0.3,0.1,0.6,0.3,0.9,0.4c0.3,0.2,0.7,0.4,1.1,0.6C164.6,22.8,164.4,22.8,164.2,22.7z M183.1,38.5
				C183.1,38.5,183.1,38.5,183.1,38.5c0.3,0.3,0.5,0.6,0.7,0.8l-0.4-0.3C183.3,38.9,183.2,38.7,183.1,38.5z"/>
		</g>
		<g>
			<polygon class="st1" points="99.8,33 99.8,33 99.8,33 			"/>
		</g>
		<g>
			<path class="st1" d="M103.1,29.2l-0.6,0.7c0.7-0.6,1.1-1,1.4-1.4c0.3-0.4,0.5-0.6,0.8-0.9c0,0.1,0.1,0,0.3-0.1
				c1.2-1,1.7-1.8,0.9-1.4l-0.4,0.4c-0.3,0.2-0.7,0.3-1,0.5c0,0.3-0.7,1-1.5,1.7c-0.8,0.8-1.7,1.6-2.3,2.3c0.3-0.5,0.7-1,1-1.5
				c0.4-0.5,0.8-1,1.5-1.4l-0.3-0.1c1-0.9,2-1.5,2.5-2.1c-0.4,0.3-0.8,0.7-1.2,1.1l-0.1-0.1c-0.9,0.8-1.8,1.9-2.7,2.5
				c-0.6,0.7-1,1.5-2.7,3.3l0-0.1c-0.4,0.8-1.2,1.6-2,2.4c-0.8,0.8-1.5,1.6-1.8,2.1c0,0.4,0.4-0.1,0.9-0.8c0.5-0.7,1.2-1.5,1.5-1.8
				c-0.5,0.9-1.4,1.6-0.6,1.1c-1.3,2-1.2,0.9-2.1,2.7l0.7-0.9c-0.2,0.4-0.5,0.9-0.8,1.4c-0.3,0.5-0.6,1-0.8,1.4
				c0.2,0.3,0.8-1.3,1.9-2.6l-0.2,0.8l0.9-1.4l0.9-1.4c0.3-1-0.3-0.3,0.9-2.1c0.6-0.5,1.1-0.7,1.4-0.6
				C100.1,32.3,101.4,30.7,103.1,29.2z"/>
		</g>
		<g>
			<path class="st1" d="M190.6,50.2c-0.1,0.1-0.3-0.5-0.5-0.9c-0.2-0.4-0.4-0.8-0.3-0.4C190.1,49.3,190.5,50.4,190.6,50.2z"/>
		</g>
		<g>
			<path class="st1" d="M190.4,50.6l-0.5-1.2l0.3,0.9C190.2,50.4,190.3,50.3,190.4,50.6z"/>
		</g>
		<g>
			<path class="st1" d="M174.9,26.3c0.3,0.2,0.6,0.6,1.1,0.8C176,27,175.3,26.6,174.9,26.3z"/>
		</g>
		<g>
			<path class="st1" d="M181.5,108.2l0.8-1l1.6-1.9l0.8-1.1c-1.1,1.4-2.3,3-4.1,4.9L181.5,108.2z"/>
		</g>
		<g>
			<path class="st1" d="M185.4,103.3l0.7-1l0.7-1.1c-0.5,0.7-1,1.5-1.5,2.2L185.4,103.3z"/>
		</g>
		<g>
			<path class="st1" d="M145.7,15.7c1.3,0,2.3,0.1,3.3,0.1c1,0.1,1.9,0.1,3.3,0.4c-0.9-0.3-1.6-0.4-2.2-0.5
				c-0.7-0.1-1.2-0.1-1.8-0.1c-1.1,0-2.1,0-3.6-0.3L145.7,15.7z"/>
		</g>
		<g>
			<path class="st1" d="M145,14.9c1.8,0.1,0.9-0.2,2.5,0l-0.8-0.4C147.1,14.9,144.6,14.7,145,14.9z"/>
		</g>
		<g>
			<polygon class="st1" points="134.8,14.7 133.4,14.8 134.5,14.8 			"/>
		</g>
		<g>
			<polygon class="st1" points="125.3,16.6 126.5,16.2 126.4,16.2 125.1,16.6 			"/>
		</g>
		<g>
			<path class="st1" d="M98.9,32.4c1.3-1.3,0.9-1.3,1.6-2.2c-0.7,0.8-1.2,1.2-1.6,1.7c-0.5,0.5-0.9,1.1-1.7,2
				C98.5,32.6,98.8,32.2,98.9,32.4z"/>
		</g>
		<g>
			<path class="st1" d="M101,29.7c-0.2,0.2-0.4,0.4-0.5,0.5C100.7,30.1,100.8,29.9,101,29.7z"/>
		</g>
		<g>
			<path class="st1" d="M96.1,35.3c-0.1-0.2-1,1.2-0.8,0.9C95.5,35.9,95.9,35.5,96.1,35.3z"/>
		</g>
		<g>
			<path class="st1" d="M102.6,32.9c0.2-0.1,1-0.9,1.4-1.2C103.5,32.1,102.9,32.3,102.6,32.9z"/>
		</g>
		<g>
			<path class="st1" d="M92.7,41.2c0.2-0.3,0.6-0.7,0.6-0.4C93.5,40.3,93.7,39.6,92.7,41.2z"/>
		</g>
		<g>
			<path class="st1" d="M100.6,35.2c0.2-0.3,0.5-0.7,0.7-1c-0.3,0.4-0.6,0.8-1,1.2L100.6,35.2z"/>
		</g>
		<g>
			<path class="st1" d="M84.8,60.8l0-1L84.6,61C84.7,60.7,84.8,61.4,84.8,60.8z"/>
		</g>
		<g>
			<path class="st1" d="M84.6,61.3l0-0.2C84.6,61.1,84.6,61.2,84.6,61.3z"/>
		</g>
		<g>
			<path class="st1" d="M84.6,66.1c0,0.6-0.1,1.2-0.1,1.7l0-0.1C84.5,67.1,84.6,66.6,84.6,66.1z"/>
		</g>
		<g>
			<path class="st1" d="M84.2,75.4c0.1,0.4,0.2,0.9,0.3,1.3l0-0.3c-0.1-0.4-0.2-0.9-0.2-1.3L84.2,75.4z"/>
		</g>
		<g>
			<path class="st1" d="M137.2,126c0.7,0,1.8,0,2.5,0.1c0.2-0.1-0.7-0.3-0.6-0.5c-1.3-0.1-2.1-0.1-2.9,0c-0.4,0-0.8,0.1-1.2,0.1
				c-0.5,0-1,0-1.6-0.2c0.1-0.2,1-0.2-0.8-0.4l0.4,0c-1.4-0.1-1.9-0.3-2.3-0.4c-0.4-0.1-0.7-0.2-1.6-0.1l0.1-0.2
				c-0.6,0-1.5-0.2-2.5-0.4c-0.9-0.2-1.8-0.5-2.5-0.6l0.1,0c-3.8-0.9-2.1-0.5-6.2-2.1c0.6,0.2,1.3,0.3,2,0.5c-1.3-0.6-1.8-0.5-2.7-1
				c0.1,0,0-0.2,0.6,0c-1.6-0.5-3.1-1.1-4.6-1.8c-1.2-0.5,0.1,0.3,0.3,0.5c-0.5-0.1-2.4-1.3-2.4-1.5c0.3,0.1,1.4,0.7,0.8,0.2
				c-0.6-0.2-1.2-0.4-1.7-0.6c-1.9-1.5,1.8,0.6,2.9,1c-1-0.6-1.8-1-2.5-1.4c-0.7-0.4-1.5-0.8-2.5-1.5c0.6,0.5,0.9,0.8,1.2,1.1
				c0,0.1-0.6-0.1-1.2-0.6c-0.7-0.5-1.5-1.1-2.2-1.6c0.8,0.8,0.2,0.5-0.5,0.1c-0.1-0.1-0.2-0.1-0.3-0.2c-0.1,0-0.2-0.1-0.2-0.1
				l0.2,0.1c0,0,0,0.1,0.1,0.2c1.2,0.9,2,1.7,2.8,2.3c-0.2-0.5,0.4,0,1.3,0.6c0.9,0.6,2,1.4,2.6,1.6l1.2,0.6l0.4,0.3
				c0.1,0.1-0.1,0.1-0.8-0.2c0.6,0.3,2.6,1.3,2.4,1.1c0.7,0.4,1.5,0.7,2.3,1.1l1.1,0.5l1.2,0.5c0.1,0.1,0.3,0.2,0.4,0.2
				c0.2,0,0.2,0,0.2,0c6.8,2.6,14,3.8,21.3,3.7c-1.1,0-2-0.2-3.1-0.2C140.2,126.2,136.7,126.3,137.2,126z"/>
		</g>
		<g>
			<path class="st1" d="M108.3,115.6c-0.2-0.2-0.5-0.4-0.8-0.6C107.8,115.2,108,115.4,108.3,115.6z"/>
		</g>
		<g>
			<path class="st1" d="M143.1,126.6c-0.5,0-1,0-1.5,0.1C142.1,126.7,142.6,126.7,143.1,126.6z"/>
		</g>
		<g>
			<path class="st1" d="M104.1,113c-0.7-0.6-1.4-1.2-2-1.8c0.6,0.7-0.6-0.3-0.8-0.4l1.2,1.1l1.3,1.1
				C103.7,113,104.1,113.1,104.1,113z"/>
		</g>
		<g>
			<path class="st1" d="M104.3,113.8c0.1,0,0.4,0.2,0.8,0.4c-0.5-0.4-0.9-0.8-1.4-1.2C103.7,113.1,103.8,113.3,104.3,113.8z"/>
		</g>
		<g>
			<path class="st1" d="M154,124c0.2,0,0.4-0.1,0.7-0.2C154.5,123.9,154.3,124,154,124z"/>
		</g>
		<g>
			<path class="st1" d="M162.1,121.5c-2.1,0.9-5.4,1.8-5.8,2.2c0-0.1,0-0.1-0.3,0l-1.3,0.6l1.3-0.3c-0.6,0.3-2.1,0.8-3.5,1.1
				c-1.4,0.3-2.8,0.5-3.2,0.4c1.3-0.3,1.6-0.4,2-0.6c0.4-0.2,1-0.3,2.8-0.6c-0.2,0-0.9,0-0.1-0.3c-4.1,1.1-7.9,1.5-12.3,1.9
				c1.7,0.1,1.2,0.2,0.3,0.3c-0.9,0.1-2,0.2-1.5,0.4l1.9-0.2l-0.2,0.1c0.8,0,1.6-0.1,2.3-0.2c-0.5-0.1-0.8-0.1-0.8-0.3
				c3.1-0.2,1,0.2,3.3,0.1c1.2-0.1,2.3-0.3,3.4-0.5l-0.3,0.1c0.3-0.1,0.4-0.1,0.5-0.1c3.8-0.8,7.6-1.9,11.2-3.4
				C163.9,121.2,160.8,122.3,162.1,121.5z"/>
		</g>
		<g>
			<path class="st1" d="M179.9,109.4L179.9,109.4C180,109.4,180,109.3,179.9,109.4z"/>
		</g>
		<g>
			<path class="st1" d="M178.7,110.8c0.1-0.1,0.1-0.3,0.2-0.4c-0.4,0.6-0.9,1.1-1.3,1.6l1.2-1.1c0.4-0.4,0.8-0.8,1.1-1.2l0-0.3
				C179.8,109.7,179.1,110.6,178.7,110.8z"/>
		</g>
		<g>
			<path class="st1" d="M175.9,113.7c1.2-1.1,0.9-1.3,0.2-0.8c1.1-1.1,0.8-0.3,1.4-1.2c-0.2-0.1-1.5,1.2-1.8,1.5L175.9,113.7z"/>
		</g>
		<g>
			<path class="st1" d="M165.4,120.3l0.4-0.3c-0.3,0.2-0.7,0.3-1.1,0.5L165.4,120.3z"/>
		</g>
		<g>
			<path class="st1" d="M166.4,119.4l-0.6,0.5l1-0.5C166.7,119.5,166.6,119.4,166.4,119.4z"/>
		</g>
		<g>
			<path class="st1" d="M170.9,117.2c-0.5,0.3-1,0.6-1.5,0.9C169.9,117.8,170.4,117.6,170.9,117.2z"/>
		</g>
		<g>
			<path class="st1" d="M168.4,118.7l1.1-0.6C169.1,118.3,168.7,118.5,168.4,118.7L168.4,118.7z"/>
		</g>
		<g>
			<path class="st1" d="M168.8,118.8l-0.4-0.1l-1.5,0.8C167.1,119.6,167.4,119.7,168.8,118.8z"/>
		</g>
		<g>
			<path class="st1" d="M174.6,114.7c-0.3,0.2-0.7,0.5-1,0.8C173.6,115.6,174.2,115,174.6,114.7z"/>
		</g>
		<g>
			<path class="st1" d="M193.1,88.6c-0.1,0.2-0.2,0.4-0.3,0.7C192.9,89.1,193,88.8,193.1,88.6z"/>
		</g>
	</g>
	<g>
		<path class="st2" d="M163.6,70.4c0,8.7-4.9,16.4-12.1,20.2c-3.2,1.7-6.9,2.7-10.7,2.7c-12.6,0-22.9-10.2-22.9-22.9
			c0-12.6,10.2-22.9,22.9-22.9C153.4,47.5,163.6,57.8,163.6,70.4z"/>
	</g>
	<path class="st2" d="M205.4,70.4c0,8.3-4.7,15.6-11.5,19.2c-3,1.6-6.5,2.5-10.2,2.5c-12,0-21.8-9.7-21.8-21.8
		c0-12,9.7-21.8,21.8-21.8C195.6,48.6,205.4,58.4,205.4,70.4z"/>
	<path class="st3" d="M159.4,111.4c4.2-3.2,11.2-8.4,15.4-11.6c4.2-3.2,8.2-1.5,8.9,3.8c0.6,5.3,1.7,13.9,2.3,19.2
		c0.6,5.3-2.8,7.9-7.7,5.8c-4.9-2.1-12.9-5.5-17.7-7.6C155.6,118.8,155.1,114.5,159.4,111.4z"/>
	<g>
		<g>
			<path class="st4" d="M183.4,69.2c0,0.8-0.2,1.4-0.5,2c-0.3,0.6-0.7,1.1-1.2,1.5c-0.5,0.4-1.1,0.7-1.9,0.9
				c-0.7,0.2-1.5,0.3-2.3,0.3c-1.2,0-2.3-0.1-3.2-0.5c-0.9-0.3-1.8-0.8-2.5-1.6l2-2c0.5,0.5,1.1,0.8,1.7,1c0.6,0.2,1.3,0.3,2.1,0.3
				c0.9,0,1.6-0.2,2.1-0.5c0.5-0.3,0.7-0.8,0.7-1.4c0-0.6-0.2-1-0.5-1.3c-0.2-0.1-0.3-0.3-0.5-0.3c-0.2-0.1-0.5-0.1-0.9-0.2
				l-1.9-0.3c-1.3-0.2-2.4-0.6-3-1.3c-0.7-0.8-1.1-1.8-1.1-3.1c0-0.7,0.1-1.3,0.4-1.9c0.2-0.6,0.6-1.1,1.1-1.5c0.5-0.4,1-0.7,1.7-1
				c0.7-0.2,1.4-0.4,2.3-0.4c1.1,0,2,0.1,2.8,0.4c0.8,0.3,1.6,0.7,2.2,1.4l-1.9,1.9c-0.5-0.5-1-0.8-1.6-0.9
				c-0.6-0.1-1.1-0.2-1.6-0.2c-0.8,0-1.4,0.2-1.8,0.6c-0.4,0.4-0.6,0.9-0.6,1.4c0,0.2,0,0.4,0.1,0.6c0.1,0.2,0.2,0.4,0.4,0.5
				c0.2,0.1,0.4,0.3,0.6,0.4c0.2,0.1,0.5,0.2,0.9,0.2l1.9,0.3c0.7,0.1,1.3,0.3,1.8,0.5c0.5,0.2,0.9,0.5,1.2,0.8
				c0.4,0.4,0.7,0.9,0.9,1.4C183.3,67.9,183.4,68.5,183.4,69.2z"/>
			<path class="st4" d="M196.3,66c0,0.7,0,1.3,0,1.9c0,0.6-0.1,1.1-0.2,1.7c-0.1,0.5-0.2,1-0.5,1.4c-0.2,0.4-0.5,0.9-0.9,1.3
				c-0.6,0.6-1.2,1-1.9,1.3c-0.7,0.3-1.5,0.4-2.4,0.4c-0.9,0-1.7-0.1-2.4-0.4c-0.7-0.3-1.3-0.7-1.9-1.3c-0.4-0.4-0.7-0.8-0.9-1.3
				c-0.2-0.4-0.4-0.9-0.5-1.4c-0.1-0.5-0.1-1.1-0.2-1.7c0-0.6,0-1.2,0-1.9c0-0.7,0-1.3,0-1.9c0-0.6,0.1-1.1,0.2-1.7
				c0.1-0.5,0.2-1,0.5-1.4c0.2-0.4,0.5-0.9,0.9-1.3c0.6-0.6,1.2-1,1.9-1.3c0.7-0.3,1.5-0.4,2.4-0.4c0.9,0,1.7,0.1,2.4,0.4
				c0.7,0.3,1.3,0.7,1.9,1.3c0.4,0.4,0.7,0.8,0.9,1.3c0.2,0.4,0.4,0.9,0.5,1.4c0.1,0.5,0.1,1.1,0.2,1.7
				C196.2,64.7,196.3,65.3,196.3,66z M193.2,66c0-0.7,0-1.4,0-1.9c0-0.5-0.1-0.9-0.1-1.2c-0.1-0.3-0.1-0.6-0.2-0.8
				c-0.1-0.2-0.2-0.4-0.4-0.5c-0.2-0.2-0.5-0.5-0.8-0.6c-0.3-0.2-0.7-0.2-1.1-0.2c-0.4,0-0.8,0.1-1.2,0.2c-0.3,0.2-0.6,0.4-0.8,0.6
				c-0.1,0.2-0.3,0.3-0.4,0.5c-0.1,0.2-0.2,0.5-0.2,0.8c-0.1,0.3-0.1,0.7-0.1,1.2c0,0.5,0,1.1,0,1.9c0,0.7,0,1.4,0,1.9
				c0,0.5,0.1,0.9,0.1,1.2c0.1,0.3,0.1,0.6,0.2,0.8c0.1,0.2,0.2,0.4,0.4,0.5c0.2,0.2,0.5,0.5,0.8,0.6c0.3,0.2,0.7,0.2,1.2,0.2
				c0.4,0,0.8-0.1,1.1-0.2c0.3-0.2,0.6-0.4,0.8-0.6c0.1-0.2,0.3-0.3,0.4-0.5c0.1-0.2,0.2-0.5,0.2-0.8c0.1-0.3,0.1-0.7,0.1-1.2
				C193.2,67.4,193.2,66.7,193.2,66z"/>
			<path class="st4" d="M201,60.9v3.9h6.2v2.7H201v6.4h-3V58.1h10.3v2.7H201z"/>
			<path class="st4" d="M209.9,73.8V58.1h3v15.7H209.9z"/>
			<path class="st4" d="M224.8,73.8l-0.9-2.8h-5.6l-0.9,2.8h-3.2l5.7-15.7h2.4l5.7,15.7H224.8z M221.1,62.8l-2,5.7h3.9L221.1,62.8z"
				/>
		</g>
		<g>
			<path class="st4" d="M175.6,77.4v7.1h-1.7v-7.1h-2.2v-1.5h6.1v1.5H175.6z"/>
			<path class="st4" d="M179.2,84.5v-8.5h5.6v1.5h-4v2h3.4v1.5h-3.4V83h4v1.5H179.2z"/>
			<path class="st4" d="M192.4,81.8c-0.1,0.4-0.2,0.8-0.4,1.2c-0.2,0.3-0.4,0.6-0.7,0.8c-0.3,0.2-0.6,0.4-0.9,0.5
				c-0.4,0.1-0.7,0.2-1.1,0.2c-0.9,0-1.7-0.3-2.3-0.9c-0.4-0.4-0.6-0.8-0.7-1.3c-0.1-0.5-0.1-1.2-0.1-2.1c0-0.9,0-1.6,0.1-2.1
				c0.1-0.5,0.3-0.9,0.7-1.3c0.6-0.6,1.4-0.9,2.3-0.9c0.8,0,1.5,0.2,2.1,0.7c0.6,0.5,0.9,1.1,1.1,2h-1.7c-0.1-0.4-0.2-0.7-0.5-0.9
				c-0.2-0.2-0.6-0.3-1-0.3c-0.5,0-0.8,0.1-1.1,0.4c-0.1,0.1-0.2,0.2-0.2,0.3c-0.1,0.1-0.1,0.2-0.1,0.4c0,0.2,0,0.4-0.1,0.7
				c0,0.3,0,0.6,0,1c0,0.4,0,0.8,0,1c0,0.3,0,0.5,0.1,0.7c0,0.2,0.1,0.3,0.1,0.4c0.1,0.1,0.1,0.2,0.2,0.3c0.2,0.3,0.6,0.4,1.1,0.4
				c0.4,0,0.7-0.1,1-0.3c0.2-0.2,0.4-0.5,0.5-0.9H192.4z"/>
			<path class="st4" d="M198.4,84.5v-3.6h-2.9v3.6h-1.7v-8.5h1.7v3.5h2.9v-3.5h1.7v8.5H198.4z"/>
		</g>
		<g>
			<path class="st4" d="M204.5,78.5c0,0.4-0.1,0.7-0.2,1c-0.1,0.3-0.3,0.6-0.6,0.9c-0.2,0.2-0.5,0.4-0.9,0.6
				c-0.3,0.1-0.7,0.2-1.2,0.2H200v3.2h-1.7v-8.5h3.3c0.4,0,0.8,0.1,1.2,0.2c0.3,0.1,0.6,0.3,0.9,0.6c0.2,0.2,0.4,0.5,0.6,0.9
				C204.4,77.8,204.5,78.1,204.5,78.5z M202.8,78.5c0-0.4-0.1-0.6-0.3-0.9c-0.2-0.2-0.5-0.3-0.9-0.3H200v2.3h1.6
				c0.4,0,0.7-0.1,0.9-0.3C202.7,79.1,202.8,78.8,202.8,78.5z"/>
			<path class="st4" d="M209.7,84.3l-0.5-1.5h-3l-0.5,1.5h-1.7l3.1-8.5h1.3l3.1,8.5H209.7z M207.7,78.3l-1.1,3.1h2.1L207.7,78.3z"/>
			<path class="st4" d="M217.1,84.3l-1.7-3.4h-1.2v3.4h-1.7v-8.5h3.3c0.4,0,0.8,0.1,1.2,0.2c0.3,0.1,0.6,0.3,0.9,0.6
				c0.2,0.2,0.4,0.5,0.5,0.8c0.1,0.3,0.2,0.7,0.2,1c0,0.3,0,0.6-0.1,0.8c-0.1,0.2-0.2,0.5-0.3,0.6c-0.1,0.2-0.3,0.3-0.5,0.5
				c-0.2,0.1-0.4,0.2-0.6,0.3l1.9,3.7H217.1z M217,78.4c0-0.3-0.1-0.6-0.3-0.8c-0.2-0.2-0.5-0.3-0.9-0.3h-1.6v2.3h1.6
				c0.4,0,0.7-0.1,0.9-0.3C216.9,79,217,78.7,217,78.4z"/>
			<path class="st4" d="M224.9,84.3l-2.2-3.9l-1.1,1.3v2.6H220v-8.5h1.7v3.7l3-3.7h2l-2.8,3.4l3,5.1H224.9z"/>
		</g>
	</g>
</g>
</svg>
